<?xml version="1.0" encoding="utf-8"?>
<!-- Generator: Adobe Illustrator 16.0.0, SVG Export Plug-In . SVG Version: 6.00 Build 0)  -->
<!DOCTYPE svg PUBLIC "-//W3C//DTD SVG 1.1//EN" "http://www.w3.org/Graphics/SVG/1.1/DTD/svg11.dtd">
<svg version="1.1" id="Layer_1" xmlns="http://www.w3.org/2000/svg" xmlns:xlink="http://www.w3.org/1999/xlink" x="0px" y="0px"
	 width="100px" height="63.667px" viewBox="0 0 100 63.667" enable-background="new 0 0 100 63.667" xml:space="preserve">
<g>
	<g>
		<g>
			<g>
				<g>
					<polygon fill="#F8EFE1" points="92.275,38.018 92.16,38.228 92.461,38.823 					"/>
					<path fill="#F8EFE1" d="M92.817,41.944c0.064-0.111,0.154-0.048,0.219-0.164c0,0-0.19-0.591-0.382-1.182
						c-0.199-0.584-0.398-1.169-0.398-1.169C91.719,40.43,93.198,41.277,92.817,41.944z"/>
					<path fill="#F8EFE1" d="M92.684,42.62c-0.269,0.88,0.109,1.282,0.235,1.506C92.627,43.787,93.15,42.459,92.684,42.62z"/>
					<path fill="#F8EFE1" d="M75.04,7.116c-0.017,0.076-0.031,0.177-0.038,0.254C75.048,7.249,75.056,7.167,75.04,7.116z"/>
					<path fill="#F8EFE1" d="M82.154,17.697l0.34,0.213c-0.345-1.963-0.451-4.043-0.698-6.158c-0.261-2.097-0.589-4.3-1.699-6.165
						l0.243,0.207c-0.302-0.617-0.663-1.22-1.167-1.737c-0.495-0.515-1.191-0.925-1.951-1.001c-0.746-0.1-1.567,0.154-2.117,0.655
						c-0.56,0.492-0.902,1.114-1.169,1.729c-0.515,1.246-0.726,2.532-0.86,3.804c-0.131,1.274-0.163,2.545-0.148,3.81
						c0.095,5.063,0.843,10.046,1.736,15.165c-0.062-0.153-0.166-0.191-0.229-0.354c0.189,0.481,0.481,0.998,0.546,1.557
						c-0.05,0.157-0.178-0.129-0.241-0.305c-0.214,2.272,1.469,6.292,1.352,7.711c0.183,0.595,0.472,0.811,0.567,0.438
						c0.926,3.953,2.006,8.021,3.372,11.998c0.681,1.987,1.437,3.953,2.308,5.832c0.434,0.939,0.903,1.854,1.417,2.714
						c0.514,0.848,1.077,1.685,1.693,2.271c0.16,0.289,0.104,0.433-0.093,0.511c0.156,0.088,0.307,0.22,0.453,0.271
						c0.12,0.062,0.233,0.087,0.352,0.113c0.12,0.012,0.235,0.012,0.347-0.019c0.112-0.033,0.18-0.086,0.355-0.135
						c0.587-0.251,1.097-0.7,1.555-1.281c0.917-1.165,1.581-2.755,2.118-4.384c1.072-3.291,1.719-6.875,2.14-10.42
						c-0.208-0.293-0.316,0.702-0.494-0.021c-0.511,2.231,0.099,4.241-0.72,6.19l-0.17-0.301c-0.435,1.423,0.512,0.416-0.106,1.858
						c-0.322,0.546-0.245-0.212-0.325,0.056c-0.647,3.027-1.908,6.121-3.383,7.717c-0.089-0.019-0.183-0.007-0.283,0.013
						c-0.104,0-0.211,0.018-0.321,0.051c-0.087,0.047-0.28,0.039-0.311,0.057c-0.039,0.013-0.093,0.015-0.144,0.006
						c-0.127-0.039-0.125-0.022-0.364-0.268c-0.188-0.2-0.354-0.484-0.407-0.746c-0.574-0.414-0.941-1.113-1.364-1.213
						c-1.264-2.362-2.243-5.041-3.163-7.719c-0.913-2.693-1.723-5.451-2.471-8.237c-1.48-5.577-2.696-11.288-3.437-17.056
						c-0.822-2.638-1.088-5.645-1.086-8.753c0.024-3.094,0.215-6.359,0.822-9.288c0.043-0.03,0.076-0.014,0.092,0.032
						c0.127-0.926,0.543-2.133,1.238-2.544c0.312-0.2,0.798-0.238,1.202-0.062c0.405,0.166,0.776,0.534,1.062,0.972
						c0,0,0.344,0.302,0.655,0.7c0.312,0.391,0.591,0.837,0.591,0.837c0.558,1.742,0.802,3.612,0.977,5.48
						c0.155,1.876,0.22,3.77,0.217,5.671c-0.01,3.804-0.233,7.632-0.63,11.45c-0.4,3.818-0.972,7.63-1.77,11.389
						c-0.801,3.754-1.83,7.472-3.272,10.974c-0.814,1.982-1.735,3.892-2.886,5.524c-1.117,1.613-2.604,3.011-3.995,3.117
						c-1.528,0.145-3.07-0.735-4.32-2.04c-1.245-1.325-2.243-2.978-3.009-4.726c-0.783-1.745-1.318-3.611-1.644-5.481
						c-0.296-1.862-0.368-3.799,0.102-5.437c0.46-1.666,1.494-2.684,3.214-2.807c0.742-0.059,1.328,0.174,1.857,0.78
						c0.522,0.605,0.883,1.521,1.109,2.482c-0.099-0.005-0.123,0.123-0.226-0.266c0.459,2.217,0.183,4.563-0.338,6.727
						c-0.52,2.183-1.312,4.26-2.272,6.265l-0.075-0.059c-0.567,1.252-1.292,2.454-2.221,3.453c-0.922,0.995-2.072,1.772-3.339,2.01
						c-1.246,0.253-2.663-0.146-3.633-0.938c-1.01-0.834-1.691-2.128-2.219-3.44c-1.029-2.68-1.492-5.604-1.838-8.466
						c-0.339-2.872-0.537-5.726-0.743-8.507c0.01-3.396,0.238-6.861,0.497-10.447c0.187-3.581,0.218-7.238,0.014-10.915
						c-0.228-3.667-0.62-7.39-1.75-10.932c-0.591-1.743-1.344-3.512-2.709-4.814c-1.363-1.309-3.41-1.727-5.154-1.225l-0.015-0.191
						c-1.46,0.417-2.634,1.391-3.614,2.438c-0.979,1.067-1.776,2.274-2.462,3.529c-1.351,2.526-2.282,5.254-2.801,8.077
						c-0.252,1.413-0.378,2.859-0.298,4.323c0.093,1.45,0.388,2.987,1.379,4.298c0.528,0.628,1.272,1.123,2.107,1.31
						c0.839,0.121,1.622,0.104,2.398-0.128c0.783-0.187,1.516-0.633,2.093-1.197c0.607-0.558,0.968-1.283,1.285-1.99
						c0.64-1.467,0.823-3.057,0.788-4.604c-0.041-1.553-0.311-3.086-0.73-4.573c-0.856-2.961-2.27-5.806-4.34-8.118
						c-1.044-1.136-2.293-2.126-3.738-2.667c-1.439-0.515-3.102-0.477-4.387,0.323c-1.291,0.777-2.273,1.962-3.12,3.186
						c-0.847,1.235-1.574,2.546-2.248,3.877c-1.934,3.2-2.932,7.442-3.605,11.584c-0.679,4.162-1.063,8.268-1.936,11.644
						c-0.766,3.487-1.232,7.015-1.382,10.553c-0.134,3.535-0.002,7.096,0.739,10.602c0.387,1.74,0.904,3.508,1.98,5.061
						c0.533,0.758,1.322,1.477,2.334,1.659c0.978,0.212,2.063-0.233,2.604-1.003c0.583-0.738,0.864-1.61,1.07-2.47
						c0.2-0.865,0.297-1.744,0.36-2.622c0.119-1.759,0.055-3.524-0.068-5.287c0.146-6.534-0.994-13.037-2.326-19.364
						c-1.373-6.338-2.965-12.54-4.596-18.672c-0.835-1.684-1.543-3.461-2.354-5.246c-0.409-0.89-0.842-1.785-1.399-2.621
						c-0.272-0.424-0.596-0.816-0.982-1.162c-0.385-0.344-0.914-0.617-1.474-0.557C9.667,1.938,8.442,2.719,7.614,3.741
						C6.76,4.756,6.161,5.94,5.725,7.156L6.03,7.013C5.239,8.019,5.081,9.423,4.986,10.66c-0.097,1.246-0.15,2.354-0.796,3.004
						l-0.003-0.261c-0.766,1.189,0.782,3.113,0.065,3.783l0.239,0.235c-0.095,1.531-0.321,0.146-0.552,1.314
						c-0.008,0.448,0.462,0.215,0.226,1.125c-1.116,0.115-0.031,3.762-1.228,3.81c0.038-0.852-0.529,1.315-0.698-0.611
						c-0.166,0.538-0.172,3.167,0.36,2.947c0.548,0.227,1.018,1.223,1.451-0.328l-0.393-0.32c0.41-0.516,0.209-0.396,0.513-0.574
						c0.125-2.029,0.73-2.27,1.065-3.694c-0.013,0.015-0.024,0.029-0.043,0.006c-0.405-1.024,0.004-2.366,0.162-3.131l0.256-0.284
						c0.507-0.407-0.605-2.382,0.103-1.67c0.189-2.025,0.531-4.188,1.128-6.3c0.595-2.07,1.453-4.26,2.786-5.516
						C9.659,4.096,9.75,3.972,9.872,3.833c0.129-0.115,0.293-0.225,0.455-0.342c0.175-0.068,0.341-0.17,0.492-0.226
						c0.176-0.046,0.235-0.087,0.282-0.137c0.065-0.061,0.091-0.139-0.02-0.24c-0.011-0.017-0.031-0.033-0.056-0.049
						c0.013,0.009,0.027,0.018,0.053,0.022c0.192,0.126,0.397,0.295,0.525,0.499c0.112,0.173,0.424,0.577,0.662,0.961
						c0.513,0.809,1.009,1.773,1.294,2.29c-0.077-0.012-0.163-0.022-0.228-0.2c0.285,2.425,1.96,2.205,1.819,4.711
						c0.852,0.062,1.165,3.97,2.352,4.967c-0.076,0.319-0.191,0.454-0.348,0.391c1.187,3.973,1.989,8.516,2.659,11.963
						c1.259,2.824,1.039,7.195,2.271,9.623c0.107,2.158,0.129,5.619,0.64,8.553l-0.126-0.282c0.272,3.348,0.237,7.446,0.304,9.661
						c-0.51,0.378-0.82,0.854-1.09,1.336c-0.27,0.458-0.568,0.925-0.843,1.001c-0.086,0.197-0.004,0.271-0.219,0.312
						c-0.187,0.054-0.485-0.042-0.913-0.527c-0.835-1-1.449-2.882-1.918-4.439c0.272-0.55-0.59-2.69-0.012-2.936
						c-1.043-4.612-1.075-10.097-0.492-15.527c0.592-5.445,1.831-10.909,3.501-15.731l0.003,0.154
						c0.015-1.354-0.249-3.015-0.229-4.442c0.091-0.113,0.173-0.068,0.09,0.203c0.461-1.835,1.595-3.285,2.232-5.01
						c0.082,0.055,0.081,0.055,0.047,0.364c0.461-1.705,1.895-3.004,2.655-4.782l0.185,0.007c0,0,0.136-0.276,0.291-0.535
						c0.146-0.272,0.314-0.515,0.314-0.515c0.123,0.161,0.29,0.358-0.148,0.799c0.571-0.679,1.201-1.259,1.831-1.62
						c0.634-0.385,1.187-0.439,1.926-0.383c1.401,0.117,2.862,1.202,4.049,2.581c1.188,1.406,2.16,3.102,2.901,4.902
						c0.744,1.797,1.272,3.716,1.492,5.636c0.213,1.899,0.116,3.902-0.663,5.382c-0.394,0.727-0.959,1.249-1.688,1.527l-0.575,0.168
						l-0.627,0.073c-0.202,0.013-0.369-0.023-0.559-0.02c-0.175-0.028-0.326-0.098-0.498-0.129c-0.61-0.261-1.109-0.907-1.427-1.74
						c-0.322-0.828-0.479-1.792-0.517-2.769c-0.099-1.958,0.204-3.987,0.707-5.933l0.042,0.615c0,0,0.023-0.194,0.059-0.485
						c0.048-0.29,0.111-0.677,0.175-1.063c0.081-0.385,0.162-0.77,0.223-1.059c0.059-0.291,0.117-0.479,0.117-0.479
						c0.084,0.049,0.077,0.202,0.065,0.357c0.827-1.806,1.626-3.656,2.726-5.271c0.531-0.823,1.17-1.542,1.869-2.146
						c0.698-0.609,1.511-1.025,2.336-1.154c-0.006,0.099-0.424,0.374,0.026,0.387c1.067-0.505,2.146-0.009,2.712,0.403
						c0.575,0.452,0.975,0.865,1.789,1.1c0.035,0.129-0.119,0.331-0.344,0.179c1.118,1.368,1.841,3.301,2.343,5.246
						c0.506,1.964,0.818,4.016,1.01,6.083c0.383,4.14,0.343,8.348,0.08,12.486c0.466,6.93-0.788,14.884,0.965,22.053l-0.199-0.01
						c0.498,2.315,1.029,4.668,1.963,6.91c0.472,1.113,1.045,2.213,1.879,3.132c0.816,0.939,2,1.544,3.236,1.736
						c1.245,0.213,2.559-0.062,3.667-0.669c1.117-0.601,2.058-1.471,2.863-2.425c1.59-1.938,2.694-4.213,3.438-6.555
						c0.672-1.933,0.987-3.634,1.13-5.342c0.123-1.706,0.116-3.454-0.418-5.456l0.198-0.173c-0.354-0.826-0.863-1.631-1.576-2.217
						c-0.713-0.6-1.664-0.84-2.573-0.79c-0.91,0.004-1.836,0.293-2.625,0.811c-0.79,0.526-1.403,1.31-1.822,2.168
						c-0.805,1.744-0.995,3.694-0.845,5.551c0.141,1.865,0.662,3.674,1.484,5.292l-0.477-0.369c0.419,0.459,0.737,1.499,1.113,2.32
						c0.361,0.827,0.752,1.422,1.038,1.03c0,0,0.088,0.309,0.176,0.617c0.104,0.306,0.207,0.61,0.207,0.61
						c1.763,1.743,3.029,3.473,5.065,4.599c1.002,0.528,2.265,0.851,3.546,0.497c1.279-0.351,2.374-1.346,3.157-2.592l-0.09,0.437
						c0.934-1.306,1.733-2.942,2.431-3.897c-0.059,0.176,0.042,0.132-0.09,0.49c1.538-2.011,2.486-4.526,3.18-7.09
						c0.69-2.575,1.138-5.228,1.7-7.772l0.252,0.661c0.121-2.559,1.34-7.043,1.514-10.377l0.157,0.223l-0.062-1.697l0.37-0.005
						C82.374,26.002,82.283,21.908,82.154,17.697z"/>
					<path fill="#F8EFE1" d="M74.739,29.116c0.002-0.012-0.002-0.031,0.005-0.046C74.691,28.947,74.704,29.008,74.739,29.116z"/>
					<path fill="#F8EFE1" d="M5.348,20.579c-0.036,0.193-0.069,0.352-0.112,0.511C5.312,21.056,5.319,20.744,5.348,20.579z"/>
				</g>
			</g>
		</g>
	</g>
</g>
</svg>
