<?xml version="1.0" encoding="utf-8"?>
<!-- Generator: Adobe Illustrator 18.0.0, SVG Export Plug-In . SVG Version: 6.00 Build 0)  -->
<!DOCTYPE svg PUBLIC "-//W3C//DTD SVG 1.1//EN" "http://www.w3.org/Graphics/SVG/1.1/DTD/svg11.dtd">
<svg version="1.1" id="Layer_1" xmlns="http://www.w3.org/2000/svg" xmlns:xlink="http://www.w3.org/1999/xlink" x="0px" y="0px"
	 viewBox="-475.3 0 1435.3 560" enable-background="new -475.3 0 1435.3 560" xml:space="preserve">
<g id="Layer_1_1_">
	<g id="XMLID_1_">
		<g>
			<g>
				<path fill="#F7EDDD" d="M809,10.8c71.1,0,129.2,58.2,129.2,129.2v280c0,71.1-58.2,129.2-129.2,129.2H529
					c-71.1,0-129.2-58.2-129.2-129.2V140c0-71.1,58.2-129.2,129.2-129.2H809z M860.7,320.9v-86.2H477.3v86.2H860.7z M860.7,462
					v-86.2H477.3V462H860.7z M860.7,183.1V96.9H477.3v86.2H860.7z"/>
			</g>
		</g>
	</g>
</g>
<g id="Layer_2">
</g>
<g>
	<path fill="#F7EDDD" stroke="#F7EDDD" stroke-width="5" stroke-miterlimit="10" d="M-380.2,463.7V109.3h8.3l54.5,282l54.5-282h8.3
		v354.4h-20.7V217.1l-37.9,196h-8.3l-37.9-196v246.6H-380.2z"/>
	<path fill="#F7EDDD" stroke="#F7EDDD" stroke-width="5" stroke-miterlimit="10" d="M-79.4,109.3v7.6h-71v153.9h59.2v7.6h-59.2
		v177.7h71v7.6h-91.8V109.3H-79.4z"/>
	<path fill="#F7EDDD" stroke="#F7EDDD" stroke-width="5" stroke-miterlimit="10" d="M4,463.7V109.3h8.3l62.8,249.1V109.3h20.7v354.4
		H75.1v-71.4L24.8,191.8v271.9H4z"/>
	<path fill="#F7EDDD" stroke="#F7EDDD" stroke-width="5" stroke-miterlimit="10" d="M268.7,434.9c0,20.9-14.9,31.4-44.7,31.4
		c-29.8,0-44.7-10.8-44.7-32.4V109.3H200v323c0,9.8,1.4,16.7,4.1,20.8c2.8,4.1,8.9,6.1,18.4,6.1s16.1-1.9,19.8-5.6
		c3.7-3.7,5.6-10.5,5.6-20.3V109.3h20.7V434.9z"/>
</g>
</svg>
