<?xml version="1.0" encoding="utf-8"?>
<!-- Generator: Adobe Illustrator 16.0.0, SVG Export Plug-In . SVG Version: 6.00 Build 0)  -->
<!DOCTYPE svg PUBLIC "-//W3C//DTD SVG 1.1//EN" "http://www.w3.org/Graphics/SVG/1.1/DTD/svg11.dtd">
<svg version="1.1" id="Layer_1" xmlns="http://www.w3.org/2000/svg" xmlns:xlink="http://www.w3.org/1999/xlink" x="0px" y="0px"
	 width="100px" height="16.799px" viewBox="0 0 100 16.799" enable-background="new 0 0 100 16.799" xml:space="preserve">
<g id="XMLID_2_">
	<g>
		<path fill="#F7EDDD" d="M75.926,8.604h1.489l-0.736-1.857L75.926,8.604z M88.07,15.13h-8.552l-1.091-2.432h-3.521l-1.092,2.432
			h-9.141V9.092l-3.101,4.109l-3.272-4.109v6.038h-9.362l-0.953-2.264h-3.94L43.04,15.13h-7.968l-3.353-4.276v4.276h-5.704V1.21
			h9.226c0,0,4.82-0.349,4.833,4.25c0.013,3.857-3.24,4.304-3.24,4.304l1.674,2.264L43.738,1h4.543l4.764,9.462L53.102,1h5.159
			l3.449,4.094L65.137,1h4.947v8.008L74.359,1h4.57l5.702,10.524l2.571-3.061L81.781,1h5.995l2.489,2.949l2.418-2.739h6.12
			l-5.366,7.295l5.366,6.625h-6.287l-2.349-2.767L88.07,15.13z M46.74,9.092l-0.738-1.858l-0.754,1.858H46.74z M34.835,5.963
			c0-1.342-0.953-1.273-0.953-1.273h-2.249v2.544h2.139C33.772,7.234,34.835,7.305,34.835,5.963z"/>
		<rect x="19.223" y="1.21" fill="#F7EDDD" width="5.704" height="13.92"/>
		<polygon fill="#F7EDDD" points="18.218,1.21 18.218,15.13 12.85,15.13 12.85,9.512 9.665,13.369 6.309,9.428 6.309,15.13 
			1.193,15.13 1.193,1.21 6.479,1.21 9.707,5.151 12.936,1.21 		"/>
	</g>
	<g>
	</g>
</g>
</svg>
