<?xml version="1.0" encoding="utf-8"?>
<!-- Generator: Adobe Illustrator 16.0.0, SVG Export Plug-In . SVG Version: 6.00 Build 0)  -->
<!DOCTYPE svg PUBLIC "-//W3C//DTD SVG 1.1//EN" "http://www.w3.org/Graphics/SVG/1.1/DTD/svg11.dtd">
<svg version="1.1" id="Layer_1" xmlns="http://www.w3.org/2000/svg" xmlns:xlink="http://www.w3.org/1999/xlink" x="0px" y="0px"
	 width="320.23px" height="98.512px" viewBox="0 0 320.23 98.512" enable-background="new 0 0 320.23 98.512" xml:space="preserve">
<path fill="#191919" d="M200.346,39.938c0,0,1.952,0.398,3.382,3.448c1.146,2.447,1.029,5.716,1.029,5.716l0.991,0.23v2.705
	l-0.533,0.19v2.897c0,0,0.801-0.229,1.105-0.077c0.305,0.153,0.801,0.382,0.839,0.572c0.038,0.191-0.496,0.8,0,0.839
	c0.496,0.038,1.105,0.19,1.105,0.19l0.687,0.267c0,0,0.61-0.724,0.801-0.19c0.19,0.534-0.19,0.801,0,1.03
	c0.19,0.229,0.42,0.419,0.648,0.419s1.182,0,1.182,0s0.763,0.114,0.763,0.381s0.571,1.41,0.571,1.41h1.334h0.572l0.8-0.533
	l0.992,0.229c0,0,0.305,0.42,0.457,0.725s-0.268,0.458,0.381,0.495c0.648,0.039,0.801-0.228,0.953-0.266
	c0.152-0.039,0.534-0.115,0.763-0.077s0.344,0.229,0.382,0.457c0.037,0.229-0.19,1.03,0,1.221c0.189,0.19,0.838,0.151,0.838,0.151
	s-0.19-0.075,0.19-0.037c0.382,0.037,0.725,1.22,0.725,1.22s-0.725,1.259-0.381,1.334c0.343,0.077,0.076,0.229,0.648,0.267
	c0.571,0.039,0.686-0.762,0.686-0.762s-0.305-0.114,0-0.229c0.306-0.115,1.334-0.115,1.334-0.115s0.839-0.305,0.839-0.534
	c0-0.229-0.191-0.876,0-0.876c0.19,0,0.915-0.075,1.22-0.039c0.306,0.039,0.306,0.458,0.306,0.039s-0.344-0.61,0-0.915
	c0.343-0.305,0.533,0.496,0.877,0.725c0.342,0.229,0.839-0.114,0.647,0.953c-0.19,1.067-0.19,0.267-0.19,1.067s-1.067,0.762,0,0.801
	c1.067,0.038,0.382,0.113,1.067,0.038c0.687-0.077,0.687-0.801,0.687-0.915s0.42-0.496,0.572-0.457
	c0.152,0.037,0.685,0.151,0.723,0.608c0.038,0.458,0.419,0.344,0.419,0.344v-1.602h0.763v2.555l0.725-0.189v-1.336l0.915,0.077
	v1.259l1.791-0.039v0.763l-0.724,0.19l0.076,2.287l0.647-0.076v-0.495h0.497v1.944l0.494-0.039v-1.258h0.534v-1.104l1.334,0.075
	v2.363l0.61-0.076v-0.876l0.687-0.152v-1.334l1.067,0.113v1.639l0.381-0.075v-1.334l0.915,0.075v1.449h0.725v2.211l0.762-0.267
	v-1.296l1.258,0.039v1.715l1.602-0.191v0.915l-0.648,0.077l0.076,4.346l1.221,0.076v-0.877l-0.572-0.076v-0.916h1.182v-3.392
	l1.259-0.038v3.354l0.952,0.075v-1.639l1.105-0.076v1.754h0.763v-1.982l-0.382-0.152v-0.61l1.679,0.153v2.745l0.457-0.077v-4.498
	l-0.648-0.152l-0.038-1.869h1.105v-1.066h0.609v0.991l0.878,0.152v3.965h1.066v3.735l0.763-0.037v-1.564h0.953v-1.221h1.678v3.317
	l0.534-0.038v-1.754h1.182v1.41h0.571v-0.876l0.954-0.039v-2.668l1.981,0.076v3.774h1.83v1.372H265.6l0.152,1.944h0.572v-1.296
	h0.877v0.763h0.686v-2.173h0.61v2.439h0.571v-4.079l-0.647-0.648l1.562-0.495l1.563,0.495l-0.686,0.61l-0.191,3.927l0.877,0.075
	l0.191-2.134l1.639,0.038v1.753l1.029-0.037v-0.572l3.736,0.114v1.144l0.647-0.077v-1.829l-0.724-0.038l0.038-1.334l2.668,0.19v1.03
	l-0.648,0.151l-0.037,1.601l0.686,0.077v2.631l0.648-0.077v-4.041h1.22v4.004h1.029v-2.021h1.144l0.19,2.136l1.868-0.114v1.181
	l-1.22,0.801v1.029l2.975-0.267v-4.499l-0.497-0.152v-0.571h2.479v0.686l-0.571,0.038l-0.077,4.232h0.648v-2.555h1.067l-0.19,2.593
	h0.647v-1.601h0.764v1.752l3.011-0.113v0.991l-0.914,0.495l0.076,2.059l0.838-0.038v-1.486h0.534v1.562l0.647-0.038v-2.668
	l1.449,0.037v2.326l1.448,0.038v2.517l0.42-0.039v-1.144l0.496,0.039v1.144h0.42v-0.421h0.533v0.572h0.419v-0.914h0.61v-1.944
	l0.839,0.113v1.907h0.571v-1.144h0.839v1.144h0.763v-0.991h0.877v0.915h1.524v-0.839h0.571v0.763l1.526,0.038v1.753l1.067,0.038
	v2.021h0.838v-1.334h0.496v-2.173h0.763v2.135l0.762,0.038v1.757l1.524-0.346v-1.754l0.572,0.038v2.062l1.183-0.308v-0.916h0.915
	v0.916l1.715,0.308v4.003H0l0-4.003h2.249v-2.212h1.792v2.212h1.067v-4.232h1.563v3.965l1.182,0.076v-2.974l1.296-0.114v3.127
	l1.029,0.152v-2.116H9.721l-0.038-0.781l1.144,0.075v-2.516h0.915v1.602h0.458v1.067h0.725v-2.669h0.687l0.152,2.44l0.495-0.114
	V90.62h0.534v1.105l0.992-0.039v-1.981l-0.534-0.076v-0.687h1.601v-2.059h1.182v2.097l1.677,0.076v0.648h-0.686l0.229,3.24
	l1.068,0.038v-0.343H20.7v-4.117l-0.343-0.191l-0.038-0.763h3.202v0.649l-0.19,0.19v0.457h0.762v4.079l1.411-0.076v-0.725
	l-0.762-0.037v-1.411h1.753V88.98h1.182v1.716h1.067v-2.669h1.258v2.669h0.876v-1.754l1.03-0.038v1.792h0.953V87.99l0.953,0.037
	v1.297h0.419v2.058l1.868-0.113l-0.19-3.089l1.64,0.076V90.2h0.686v-2.592h2.059v1.754l0.839,0.075l0.229,1.716l0.572-0.038
	l0.153-1.22h0.305v-3.927h2.173v5.223l0.762-0.076v-2.097l1.144-0.039v2.288l0.572-0.038v-3.316l1.677,0.038v3.201h0.991v-3.316
	l-0.915-0.99l-0.038-0.877h3.393v-2.593l-0.8-0.534l1.143-0.267v-0.457h0.877v0.457l1.067,0.457l-0.572,0.306l-0.038,2.593
	l1.258-0.039l-0.229-4.422h1.754v2.478h0.762v2.173h0.839v-2.438l1.067,0.037v2.478h0.534v-2.516l1.563-0.038v2.401l1.105,0.076
	v1.067l-0.725,0.306v2.363l1.373-0.991v-4.003l0.877-0.114v-4.422l-0.724-0.19v-0.688l0.381-0.189l0.076-0.801h1.792v0.725
	l0.267,0.189v0.687l-0.496,0.268v4.384l0.496-0.076v-2.516l1.105,0.037v2.631l0.458-0.076v-1.602h0.61v1.602l1.105-0.19v-2.401h1.03
	v2.63l0.991-0.114v0.571l-0.648,0.191v1.087h1.029v-0.706l0.61-0.114v-1.487l0.992,0.038v1.449h0.953v-0.571h0.458V83.07
	l-0.686-0.572l0.953-0.495v-1.982l1.372-0.076v1.792l0.458-0.076v-1.906l1.334,0.113v1.831H78.8v0.915l0.991-0.076v-4.079h1.486
	v3.812h0.648v-1.411l0.801-0.037v-1.029l1.258,0.151v2.479l1.144,0.038v-2.745l-1.144-0.687l0.038-0.762h2.478v-2.173h0.458v-0.762
	h0.839v0.8h0.381v2.135l0.61-0.152l0.19-2.782h1.106v1.601l0.686,0.151v1.297h0.572v-1.677h0.496v1.716h0.687v-1.679l0.762-0.037
	v1.753h1.144v1.182h-0.648v0.572l1.296-0.075v-4.232l-0.496-0.038v-0.533l1.067-0.153v-4.27h1.22v4.46h0.381v-1.83h0.686v1.64h0.381
	V74.34h0.496v0.953l0.839-0.076v-1.868l0.648-0.038v1.906l0.953,0.115v0.457l-0.534,0.152l0.038,0.686h0.496l0.534-0.838v1.524
	l0.953-0.038v-1.41l0.763-0.839l0.229,4.27h1.487v-1.334l-0.915-0.039l-0.039-1.296l1.639-0.151v-1.983h1.487v2.173h0.953
	l-0.229-3.888h1.754v4.003l0.496-0.268v-2.287l0.382-0.191v-1.22l-0.839-1.297l0.839-0.189v-0.61h0.953v0.571l0.838,0.229
	l-0.724,1.259l-0.038,1.258l0.458,0.229l0.038,1.068l0.572-0.039v-1.981h0.419v2.173l0.724-0.229v-1.907l1.182-0.076v-0.457
	l-0.686-0.076V72.09l1.525-0.114v-1.981h1.334v2.134h0.343v-1.029h0.61v1.334l0.916-0.151v-1.944l1.981-0.115v-1.334h0.801v1.524
	h0.724v-2.211h0.687v2.287h0.647v-4.116l-0.8-0.153l1.372-1.181l1.106,1.295l-0.534,0.152l-0.152,4.003l3.393-0.229V67.82
	l-0.686-0.115v-0.838l1.029-0.038v-1.334l-0.382-0.191v-0.266l2.479-1.373v1.145l2.211-1.145l0.153,1.334l1.906-1.334v1.029
	l1.753-1.449v3.203l3.203-0.191l-0.19-3.012h-0.839v-0.801h2.02v-1.486h0.839v1.297h1.105v-1.603h0.763v0.764l0.648,0.038v0.801
	l0.876-0.039v-1.029h-0.61l-0.038-0.534h0.648v-1.639h0.991v1.639h0.876v2.479l1.334-0.037v-4.08h0.724v0.953l0.419-0.038V58.29
	h0.343v1.677h0.419V58.29h0.725v1.677l0.572-0.076V58.29h0.953v1.753h0.496v0.534l0.991-0.077v-2.478h-0.534v-0.686h1.182v-1.105
	h0.572v1.029h0.762v-1.029h0.649v1.753l0.8-0.152v-2.744h1.295v-1.03h-0.496v-0.914l2.364-0.229c0,0-0.191-4.554,1.239-8.042
	c1.292-3.151,3.688-4.975,3.688-4.975V34.38c0,0,0.003-0.81,0.295-1.191c0.344-0.448,0.887-0.496,0.887-0.496l-0.004-0.429
	l-0.299-0.01l-0.008-0.218l0.313-0.01l-0.022-0.379l0.213,0l0.028,0.389l0.325,0.019v0.209h-0.325v0.44c0,0,0.695,0.065,0.923,0.437
	c0.282,0.457,0.191,1.325,0.191,1.325v5.375c0,0,1.146,0.721,1.745,1.487c0.714,0.915,1.144,2.208,1.144,2.208v-2.555
	c0,0-1.03-0.34-1.03-1.601c0-1.466,1.334-1.982,1.334-1.982v-2.897l-0.648-0.114c0,0-0.191-1.296,0.648-2.135
	c0.838-0.839,1.165-0.765,1.165-0.765s-0.476-5.171,2.474-9.049c2.421-3.183,2.685-3.008,3.965-4.289
	c0.896-0.896,1.408-2.121,1.408-2.121l-0.227-0.09l0.039-1.849l0.537-0.122l0.019-4.513h-0.365V8.959h0.361
	c0,0-0.057-1.845,0.286-2.836c0.343-0.992,1.329-1.937,1.329-1.937l0.058-2.731l-0.543,0.015v-0.2l0.559-0.001L182.431,0h0.176
	v1.256l0.567,0.014v0.214l-0.557,0.014l0.1,2.646c0,0,0.847,0.683,1.222,1.845c0.362,1.125,0.308,2.97,0.308,2.97l0.364,0.01
	l-0.014,0.529l-0.35-0.005l0.039,4.27l0.495,0.153v1.83l-0.457,0.152c0,0,0.343,1.449,1.944,2.783
	c1.602,1.334,5.071,3.927,5.566,7.777c0.496,3.851,0.609,5.261,0.609,5.261s0.893-0.075,1.312,0.726
	c0.42,0.801,0.213,1.791,0.213,1.791h-0.686l0.095,3.336c0,0,1.771,0.065,1.619,1.851c-0.152,1.792-1.523,1.675-1.523,1.675
	l-0.002,4.959c0,0,0.725-2.974,2.211-4.499c1.04-1.065,2.147-1.561,2.147-1.561v-5.518c0,0,0.003-0.81,0.295-1.191
	c0.343-0.449,0.887-0.496,0.887-0.496l-0.004-0.429l-0.3-0.009l-0.007-0.219l0.312-0.01l-0.022-0.379h0.213l0.027,0.389l0.324,0.019
	v0.209h-0.324v0.439c0,0,0.695,0.065,0.923,0.437c0.281,0.458,0.19,1.325,0.19,1.325V39.938z"/>
</svg>
