<?xml version="1.0" encoding="utf-8"?>
<!-- Generator: Adobe Illustrator 16.0.0, SVG Export Plug-In . SVG Version: 6.00 Build 0)  -->
<!DOCTYPE svg PUBLIC "-//W3C//DTD SVG 1.1//EN" "http://www.w3.org/Graphics/SVG/1.1/DTD/svg11.dtd">
<svg version="1.1" id="Layer_1" xmlns="http://www.w3.org/2000/svg" xmlns:xlink="http://www.w3.org/1999/xlink" x="0px" y="0px"
	 width="100px" height="100px" viewBox="0 0 100 100" enable-background="new 0 0 100 100" xml:space="preserve">
<g>
	<g id="XMLID_3_">
		<g>
			<path fill="#F7EDDD" d="M45.487,55.315c-1.116-3.396-0.188-7.26,3.953-8.712c0.894-0.317,1.848-0.507,2.789-0.645
				c0.969-0.142,1.961-0.149,2.939-0.221c0.504-0.038,0.77,0.131,0.744,0.69c-0.03,0.623-0.008,1.249-0.008,1.874
				c0.068,2.466-0.258,4.834-1.68,6.941c-1.16,1.717-2.7,2.771-4.83,2.788C47.543,58.052,46.064,57.075,45.487,55.315z"/>
			<path fill="#F7EDDD" d="M79.491,64.255c-3.471-0.846-6.759-0.525-9.765,1.563c-0.495,0.342-0.862,0.721-0.637,1.367
				c0.23,0.666,0.753,0.773,1.396,0.704c1.334-0.144,2.674-0.252,4.011-0.376c0.003,0.02,0.003,0.044,0.007,0.066
				c0.479,0,0.964,0.024,1.442-0.003c0.666-0.039,0.865,0.278,0.744,0.885c-0.08,0.399-0.127,0.809-0.249,1.193
				c-0.432,1.372-0.925,2.724-1.308,4.106c-0.097,0.35,0.007,0.922,0.248,1.149c0.243,0.227,0.796,0.26,1.162,0.177
				c0.368-0.086,0.728-0.374,1.001-0.656c2.294-2.396,3.305-5.291,3.225-8.586C80.755,64.968,80.359,64.464,79.491,64.255z
				 M45.109,36.428c0.915-2.951,3.657-4.605,6.883-4.07c1.989,0.329,3.353,1.476,3.668,3.433c0.217,1.343,0.189,2.727,0.216,4.091
				c0.001,0.151-0.355,0.42-0.569,0.451c-1.166,0.156-2.34,0.248-3.511,0.368c-2.675,0.273-5.342,0.581-7.909,1.457
				c-5.848,1.991-8.891,5.824-9.088,11.535c-0.082,2.424,0.363,4.757,1.715,6.811c1.797,2.726,4.458,3.979,7.648,4.237
				c4.352,0.354,8.312-0.529,11.562-3.662c0.464-0.449,0.953-0.866,1.477-1.342c0.311,0.424,0.564,0.833,0.88,1.188
				c0.939,1.055,1.863,2.132,2.874,3.116c0.727,0.706,1.361,0.688,2.126,0.062c1.762-1.452,3.5-2.933,5.242-4.413
				c0.539-0.455,0.606-1.014,0.257-1.613c-0.144-0.246-0.326-0.479-0.512-0.695c-1.614-1.862-2.351-4.026-2.339-6.485
				c0.022-4.254,0.04-8.513-0.009-12.771c-0.019-1.653-0.052-3.336-0.367-4.945c-0.697-3.582-3.146-5.721-6.424-6.886
				c-5.103-1.817-10.251-1.631-15.296,0.232c-3.976,1.47-6.458,4.373-7.464,8.513c-0.346,1.432-0.047,1.877,1.434,2.052
				c1.812,0.213,3.625,0.414,5.438,0.628C44.391,37.879,44.699,37.743,45.109,36.428z M25.486,68.33
				c2.111,1.671,4.178,3.403,6.367,4.965c5.458,3.901,11.444,6.449,18.262,6.721c0.621-0.055,1.243-0.124,1.864-0.159
				c4.615-0.264,9.08-1.19,13.377-2.909c2.959-1.188,5.71-2.742,8.31-4.573c0.537-0.38,0.846-0.876,0.697-1.543
				c-0.143-0.636-0.552-1.126-1.205-1.179c-0.504-0.038-1.065,0.053-1.535,0.247c-4.932,2.075-10.027,3.549-15.349,4.226
				c-3.524,0.451-7.038,0.459-10.548-0.157c-3.909-0.685-7.595-2.038-11.139-3.782c-2.582-1.273-5.112-2.655-7.67-3.978
				c-0.814-0.421-1.53-0.299-1.927,0.301C24.622,67.062,24.793,67.779,25.486,68.33z M28.195,29.653
				c0.84-0.37,1.898-1.325,2.35-2.124L45.099,1.783c0.451-0.801,1.325-0.899,1.94-0.218l19.912,21.99
				c0.617,0.682,1.857,1.385,2.758,1.565l28.384,5.654c0.901,0.182,1.278,0.987,0.838,1.794L84.722,58.662
				c-0.438,0.806-0.724,2.21-0.631,3.124l2.832,28.342c0.095,0.914-0.571,1.531-1.477,1.367l-28.433-5.066
				c-0.902-0.161-2.336-0.005-3.186,0.345l-26.817,11.11c-0.849,0.348-1.627-0.109-1.732-1.023l-3.218-28.337
				c-0.104-0.913-0.684-2.222-1.291-2.908L1.125,43.248c-0.606-0.688-0.415-1.553,0.427-1.923L28.195,29.653z"/>
		</g>
		<g>
		</g>
	</g>
</g>
</svg>
