<?xml version="1.0" encoding="utf-8"?>
<!-- Generator: Adobe Illustrator 16.0.0, SVG Export Plug-In . SVG Version: 6.00 Build 0)  -->
<!DOCTYPE svg PUBLIC "-//W3C//DTD SVG 1.1//EN" "http://www.w3.org/Graphics/SVG/1.1/DTD/svg11.dtd">
<svg version="1.1" id="Layer_1" xmlns="http://www.w3.org/2000/svg" xmlns:xlink="http://www.w3.org/1999/xlink" x="0px" y="0px"
	 width="100px" height="100px" viewBox="0 0 100 100" enable-background="new 0 0 100 100" xml:space="preserve">
<g>
	<g id="XMLID_4_">
		<g>
			<path fill="#F7EDDD" d="M32.749,77.333c3.13,3.375,6.403,3.836,10.621,1.901c3.962-1.815,7.861-1.818,11.797,0.118
				c3.107,1.529,6.086,1.342,8.869-0.911c3.027-2.449,5.036-5.685,7-8.943c0.904-1.504,1.604-3.136,2.4-4.723
				C63.319,60.632,61.991,46.54,71.56,41.132c-3.039-4.56-9.618-7.304-14.72-5.466c-8.205,2.954-8.371,2.333-15.911-0.08
				c-2.047-0.653-4.157-0.595-6.246,0c-6.954,1.979-11.704,8.117-11.974,15.908C22.362,61.503,26.018,70.071,32.749,77.333z
				 M76.692,96.479c-0.071,0.909-0.835,1.392-1.691,1.072L48.095,87.456c-0.854-0.317-2.284-0.425-3.177-0.234L16.673,93.25
				c-0.896,0.189-1.573-0.402-1.51-1.312l1.964-28.306c0.063-0.912-0.267-2.298-0.735-3.083L1.208,35.123
				c-0.468-0.785-0.124-1.598,0.763-1.804l28.176-6.612c0.89-0.209,2.097-0.953,2.684-1.653L51.718,2.489
				c0.587-0.703,1.46-0.639,1.939,0.138l15.511,25.11c0.482,0.777,1.568,1.692,2.419,2.028l26.747,10.659
				c0.849,0.339,1.074,1.196,0.498,1.904L80.219,65.294c-0.575,0.708-1.107,2.033-1.182,2.945L76.692,96.479z M47.081,34.475
				c0.024,0.926,0.418,1.177,1.303,1.044c4.978-0.744,8.161-3.697,10.028-8.199c0.755-1.821,1.141-3.75,0.72-5.742
				c-0.212-0.049-0.35-0.118-0.477-0.104C52.61,22.163,46.896,27.993,47.081,34.475z"/>
		</g>
		<g>
		</g>
	</g>
</g>
</svg>
