<?xml version="1.0" encoding="utf-8"?>
<!-- Generator: Adobe Illustrator 16.0.0, SVG Export Plug-In . SVG Version: 6.00 Build 0)  -->
<!DOCTYPE svg PUBLIC "-//W3C//DTD SVG 1.1//EN" "http://www.w3.org/Graphics/SVG/1.1/DTD/svg11.dtd">
<svg version="1.1" id="Layer_1" xmlns="http://www.w3.org/2000/svg" xmlns:xlink="http://www.w3.org/1999/xlink" x="0px" y="0px"
	 width="100px" height="100px" viewBox="0 0 100 100" enable-background="new 0 0 100 100" xml:space="preserve">
<g>
	<g id="XMLID_1_">
		<g>
			<path fill="#F7EDDD" d="M83.965,55.166c-0.006,2.55,0,5.105-0.006,7.667c0.006-2.562,0-5.117,0-7.667
				c0.006-1.229,0.006-2.459,0.006-3.688C83.965,52.707,83.965,53.937,83.965,55.166z"/>
			<path fill="#F7EDDD" d="M34.229,69.391c0.341,1.98,1.064,2.692,3.193,1.855c1.742-9.802,3.501-19.706,5.26-29.621
				c0.148,0.011,0.29,0.023,0.438,0.034c0,9.915,0,19.831,0,29.7c2.003,0,3.74,0,5.447,0c0-14.787,0-29.353,0-44.044
				c-3.051,0-5.948,0-9.044,0c-1.156,9.25-2.305,18.414-3.449,27.572c-0.114,0-0.222,0-0.336-0.012
				c-1.15-9.181-2.3-18.356-3.455-27.589c-3.119,0-5.942,0-8.982,0c0,14.879,0,29.519,0,44.158c1.878,0,3.552,0,5.453,0
				c0-10.052,0-19.968,0-29.883c0.506,0.393,0.615,0.825,0.694,1.264C31.058,51.677,32.714,60.522,34.229,69.391z M79.098,69.271
				c1.958,2.356,4.246,2.744,6.648,2.05c2.368-0.689,2.823-2.875,3.153-4.97c0.177-1.115,0.211-2.266,0.216-3.403
				c0.023-5.208,0.058-10.411-0.011-15.63c-0.028-1.878-0.223-3.762-0.523-5.624c-0.37-2.277-2.021-3.654-4.149-3.529
				c-1.851,0.114-3.649,1.132-5.562,1.787c0-3.791,0-8.174,0-12.653c-1.759,0-3.244,0-4.924,0c0,14.879,0,29.507,0,44.209
				c1.69,0,3.193,0,4.793,0C78.854,70.808,78.956,70.153,79.098,69.271z M49.835,1.315c26.974,0,48.842,21.874,48.842,48.848
				C98.678,77.131,76.81,99,49.835,99C22.862,99,0.993,77.131,0.993,50.163C0.993,23.189,22.862,1.315,49.835,1.315z M70.907,61.034
				c0.012-7.945,0.04-15.903-0.018-23.854c-0.017-1.878-0.272-3.762-0.512-5.624c-0.268-2.129-1.514-3.603-3.626-3.785
				c-4.57-0.398-9.164-0.558-13.911-0.825c0,15.129,0,29.735,0,44.636c3.512,0,6.894,0.011,10.274-0.012
				c4.832-0.017,6.893-1.775,7.593-6.562C70.901,63.704,70.901,62.366,70.907,61.034z M18.917,71.456c0-14.873,0-29.501,0-44.141
				c-2.061,0-3.921,0-5.908,0c0,14.759,0,29.394,0,44.141C15.013,71.456,16.874,71.456,18.917,71.456z"/>
			<path fill="#F7EDDD" d="M81.534,44.329c2.151,0.023,2.419,1.736,2.425,3.455c0.006,1.229,0.006,2.465,0.006,3.694
				c0,1.229,0,2.459-0.006,3.688c0,2.55,0.006,5.105,0,7.667c-0.012,1.708-0.592,3.04-2.567,3.017
				c-1.986-0.039-2.465-1.439-2.465-3.125c-0.005-5.009-0.022-10.028,0.012-15.038C78.95,45.939,79.439,44.306,81.534,44.329z"/>
			<path fill="#F7EDDD" d="M64.651,60.432c0,4.593-0.626,5.146-5.532,4.701c0-10.456,0-20.929,0-31.579
				c4.986-0.239,5.527,0.268,5.532,4.98C64.651,45.832,64.651,53.129,64.651,60.432z"/>
		</g>
		<g>
		</g>
	</g>
</g>
</svg>
