<?xml version="1.0" encoding="utf-8"?>
<!-- Generator: Adobe Illustrator 16.0.0, SVG Export Plug-In . SVG Version: 6.00 Build 0)  -->
<!DOCTYPE svg PUBLIC "-//W3C//DTD SVG 1.1//EN" "http://www.w3.org/Graphics/SVG/1.1/DTD/svg11.dtd">
<svg version="1.1" id="Layer_1" xmlns="http://www.w3.org/2000/svg" xmlns:xlink="http://www.w3.org/1999/xlink" x="0px" y="0px"
	 width="100px" height="100px" viewBox="0 0 100 100" enable-background="new 0 0 100 100" xml:space="preserve">
<g id="XMLID_6_">
	<g>
		<path fill="#F7EDDD" d="M98.229,35.564c0.871,0.27,1.163,1.104,0.646,1.857L82.193,61.725c-0.51,0.749-0.938,2.108-0.938,3.021
			l-0.085,28.258c-0.004,0.908-0.728,1.447-1.603,1.196L52.03,86.309c-0.875-0.251-2.308-0.244-3.179,0.015l-27.597,8.233
			c-0.871,0.263-1.595-0.272-1.603-1.181l-0.295-28.295c-0.011-0.908-0.45-2.26-0.978-3.002L1.268,38.008
			c-0.528-0.742-0.247-1.577,0.617-1.854l27.482-8.81c0.868-0.277,2.009-1.111,2.537-1.854l16.981-23.93
			c0.524-0.742,1.396-0.75,1.935-0.015l17.413,23.727c0.539,0.731,1.691,1.555,2.562,1.824L98.229,35.564z M77.97,53.919
			c0-15.379-12.47-27.848-27.848-27.848c-15.379,0-27.848,12.469-27.848,27.848c0,15.383,12.469,27.848,27.848,27.848
			C65.5,81.767,77.97,69.302,77.97,53.919z"/>
		<path fill="#F7EDDD" d="M70.714,50.123c1.81,1.045,2.714,2.422,2.714,3.796c0,1.377-0.904,2.755-2.714,3.796L41.78,74.423
			c-3.618,2.086-6.58,0.38-6.58-3.796V37.215c0-4.176,2.961-5.886,6.58-3.796L70.714,50.123z"/>
	</g>
	<g>
	</g>
</g>
</svg>
