<?xml version="1.0" encoding="utf-8"?>
<!-- Generator: Adobe Illustrator 16.0.0, SVG Export Plug-In . SVG Version: 6.00 Build 0)  -->
<!DOCTYPE svg PUBLIC "-//W3C//DTD SVG 1.1//EN" "http://www.w3.org/Graphics/SVG/1.1/DTD/svg11.dtd">
<svg version="1.1" id="Layer_1" xmlns="http://www.w3.org/2000/svg" xmlns:xlink="http://www.w3.org/1999/xlink" x="0px" y="0px"
	 width="100px" height="100px" viewBox="0 0 100 100" enable-background="new 0 0 100 100" xml:space="preserve">
<g id="XMLID_11_">
	<g>
		<path fill="#F7EDDD" d="M49.942,1C76.97,1,98.882,22.908,98.882,49.939c0,27.028-21.912,48.936-48.939,48.936
			C22.912,98.875,1,76.967,1,49.939C1,22.908,22.912,1,49.942,1z M88.199,55.253c2.854-28.01-15.702-31.046-15.702-31.046
			s-0.422,1.091-1.427,1.785c-0.938,0.653-4.779,1.098-4.779,1.098s6.564,2.652,7.636,3.542c1.069,0.893,3.564,3.036,3.564,3.036
			s-2.118,5.5-7.8,6.805C66.176,41.285,58.58,37.59,58.58,37.59s0.358,6.958-0.713,9.46c-1.069,2.496-5.353,5.708-5.353,5.708
			s-4.998-3.222-6.245-5.708c-0.851-1.695-3.391-7.141-3.391-7.141s-4.575,3.225-11.239,1.964
			c-6.603-1.248-11.421-8.206-11.421-8.206s5.176-1.072,8.03-3.212c3.001-2.249,4.463-4.108,4.463-4.108s-1.792-0.886-2.496-1.702
			c-0.585-0.675-1.433-2.22-1.433-2.22S5.412,25.279,8.8,58.645c2.006,19.742,25.405,32.92,45.666,30.335
			C71.249,86.84,85.857,78.208,88.199,55.253z M71.368,21.28c2.089-1.846,2.172-4.859,2.172-4.859s-3.189,1.993-5.704,2.47
			c-3.583,0.681-5.077,0.979-9.553,0.979c-2.55,0-5.971,3.045-5.971,3.045s0.138-4.117,1.606-6.357
			c1.404-2.14,3.414-2.697,3.414-2.697l-1.431-3.926c0,0-4.393,2.678-5.762,5.532c-1.373,2.854-1.661,6.958-1.661,6.958
			s-2.524-2.834-5.199-3.724c-2.678-0.896-6.232-0.857-7.56-1.139c-2.211-0.467-6.223-4.06-6.223-4.06s-0.355,6.162,2.943,8.276
			c3.544,2.275,5.845,0.899,6.878,1.382c1.753,0.825,2.787,2.678,2.787,2.678s-2.016-0.07-4.514,1.36
			c-2.496,1.427-3.011,3.813-4.882,5.285c-1.548,1.212-7.025,2.476-7.025,2.476s4.348,2.876,7.224,2.876
			c2.879,0,7.829-1.004,10.023-3.833c1.526-1.964,3.513-4.444,3.513-4.444s-0.489,2.125,0,5.132
			c0.458,2.815,2.156,4.706,3.033,6.107c1.484,2.39,2.502,6.072,2.502,6.072s4.601-4.863,2.502-9.902
			c-2.23-5.359-0.721-8.568-0.721-8.568s3.437,5.119,5.891,6.511c2.898,1.654,6.577,2.524,8.52,2.39
			c1.52-0.103,6.354-3.548,6.354-3.548s-4.348-2.585-6.488-2.764c-2.14-0.179-4.994-2.137-6.424-3.391
			c-1.404-1.232-3.673-2.976-3.743-3.027c0.121,0.051,2.924,1.219,6.242,0.173C67.503,23.673,69.755,22.7,71.368,21.28z"/>
	</g>
	<g>
	</g>
</g>
</svg>
