<?xml version="1.0" encoding="utf-8"?>
<!-- Generator: Adobe Illustrator 16.0.0, SVG Export Plug-In . SVG Version: 6.00 Build 0)  -->
<!DOCTYPE svg PUBLIC "-//W3C//DTD SVG 1.1//EN" "http://www.w3.org/Graphics/SVG/1.1/DTD/svg11.dtd">
<svg version="1.1" id="Layer_1" xmlns="http://www.w3.org/2000/svg" xmlns:xlink="http://www.w3.org/1999/xlink" x="0px" y="0px"
	 width="100px" height="100px" viewBox="0 0 100 100" enable-background="new 0 0 100 100" xml:space="preserve">
<g id="XMLID_10_">
	<g>
		
			<rect x="52.589" y="61.712" transform="matrix(0.8119 -0.5837 0.5837 0.8119 -24.0656 51.2694)" fill="#F7EDDD" width="29.897" height="2.546"/>
		<polygon fill="#F7EDDD" points="73.588,82.506 73.572,82.506 73.582,82.496 73.585,82.496 		"/>
		<path fill="#F7EDDD" d="M65.805,87.595l0.029-0.021c0.003,0.006,0.01,0.016,0.013,0.021H65.805z"/>
		<polygon fill="#F7EDDD" points="61.985,47.907 65,53.553 58.681,52.513 54.243,57.124 53.286,50.798 47.532,47.999 53.248,45.13 
			54.129,38.791 58.626,43.342 64.928,42.223 		"/>
		
			<rect x="45.465" y="18.375" transform="matrix(0.584 0.8117 -0.8117 0.584 46.4894 -24.0769)" fill="#F7EDDD" width="2.543" height="29.893"/>
		<polygon fill="#F7EDDD" points="45.369,67.245 45.369,67.277 45.337,67.232 		"/>
		<path fill="#F7EDDD" d="M21.12,27.385l10.837-7.84l-10.805,7.873C21.142,27.404,21.132,27.395,21.12,27.385z"/>
		<path fill="#F7EDDD" d="M45.369,67.277v-0.032l-0.032-0.013L45.369,67.277z M17.284,17.022l-1.199,2.831
			c0.614,0.264,1.154,0.712,1.53,1.327c0.977,1.59,0.477,3.667-1.11,4.644c-0.955,0.582-2.09,0.636-3.05,0.235l-1.11,2.611
			c0.626,0.261,1.183,0.722,1.565,1.342c0.973,1.587,0.474,3.67-1.11,4.641c-0.974,0.595-2.119,0.643-3.088,0.226l-1.187,2.799
			c0.607,0.267,1.145,0.725,1.521,1.339c0.976,1.587,0.477,3.709-1.11,4.685C7.98,44.287,6.851,44.02,5.891,44.02l-1.221,2.392
			c-0.003-0.003-0.01-0.003-0.013-0.006v0.029l0.013-0.022c0.681,0.267,1.17,0.633,1.533,1.215c0.601,0.989,0.7,2.433,0.264,3.069
			h0.01l38.858,16.533L19.959,31.825c1.116-0.324,1.927-1.355,1.927-2.573c0-0.712-0.276-1.358-0.734-1.835l10.805-7.873
			l-10.837,7.84c0-0.003,0-0.003-0.003-0.006l1.05-0.763c0,0,0,0,0.003,0l9.736-7.071l-10.204-4.332
			c-0.264,0.633-0.719,1.193-1.345,1.578C19.393,17.375,18.251,17.426,17.284,17.022z M84.994,45.846
			c-0.855-0.194-1.638-0.716-2.131-1.527c-0.62-1.011-0.643-2.22-0.169-3.216l-6.863-2.91l7.847,10.75L84.994,45.846z M78.512,74.59
			c1.343,0,2.497,0.778,3.041,1.914l2.395-1.705c-0.636-0.616-1.03-1.473-1.03-2.43c0-1.86,1.508-3.371,3.368-3.371
			c1.358,0,2.522,0.798,3.061,1.946l2.592-1.848c-0.63-0.607-1.018-1.464-1.018-2.411c0-1.187,0.613-2.229,1.539-2.831L53.995,9.904
			c-0.557,0.401-1.234,0.636-1.975,0.636c-1.126,0-2.128-0.557-2.736-1.403l-2.497,1.781c0.378,0.547,0.604,1.212,0.604,1.934
			c0,1.864-1.511,3.372-3.375,3.372c-1.12,0-2.115-0.544-2.726-1.393l-2.309,1.647c0.397,0.553,0.636,1.234,0.636,1.965
			c0,1.864-1.514,3.375-3.375,3.375c-1.139,0-2.144-0.563-2.751-1.425l-2.471,1.759c0.381,0.547,0.607,1.212,0.607,1.924
			c0,1.867-1.511,3.375-3.375,3.375c-1.116,0-2.108-0.544-2.723-1.383l-2.236,1.597c0.356,0.541,0.566,1.18,0.566,1.876
			c0,1.158-0.588,2.175-1.476,2.786l38.461,53.948c0.547-0.376,1.202-0.646,1.911-0.646c1.368,0,2.545,0.995,3.076,1.943
			l-0.029,0.021h0.042c-0.003-0.006-0.01-0.016-0.013-0.021l2.118-1.543v-0.01c-0.318-0.613-0.916-1.384-0.916-2.344
			c0-1.861,1.629-3.292,3.489-3.292c1.354,0,2.522,0.846,3.057,2.111l-0.01,0.01h0.016c0-0.003-0.003-0.006-0.003-0.01l2.315-2.137
			c-0.633-0.611-0.884-1.46-0.884-2.398C75.017,76.101,76.651,74.59,78.512,74.59z M50.029,98.139
			c-26.87,0-48.655-21.781-48.655-48.651S23.159,0.833,50.029,0.833c26.871,0,48.655,21.785,48.655,48.655
			S76.899,98.139,50.029,98.139z"/>
		<polygon fill="#F7EDDD" points="4.657,46.434 4.657,46.405 4.669,46.412 		"/>
	</g>
	<g>
	</g>
</g>
</svg>
