<?xml version="1.0" encoding="utf-8"?>
<!-- Generator: Adobe Illustrator 22.0.1, SVG Export Plug-In . SVG Version: 6.00 Build 0)  -->
<svg version="1.1" id="Layer_1" xmlns="http://www.w3.org/2000/svg" xmlns:xlink="http://www.w3.org/1999/xlink" x="0px" y="0px"
	 viewBox="0 0 296.7 402.4" style="enable-background:new 0 0 296.7 402.4;" xml:space="preserve">
<style type="text/css">
	.st0{fill:#FFC70F;}
</style>
<g>
	<g>
		<path class="st0" d="M160.6,9.8c-2.6-1.2-4.6,1.7-3.8,3.8c0.9,2.5,6.2,1.2,6.5-1C162.8,11.2,160.7,11.6,160.6,9.8z M195.4,21.8
			c3-1.2,5.7,0.3,8.6,0.2c-5.5-5.6-15.8-7.3-26.2-7.9c-0.6-1.9-3.1-1.7-4.4-2.7c-2,0.1-4.1,0.7-5.1,0.7
			C173.9,19.3,188.9,15.3,195.4,21.8z M104.4,25.2c0.4,1.8,2.9,2.4,4.9,1.8c1.7-0.6,1.8-2.2,3.2-2.6c1.1-0.2,3.9,1.2,6.1,1.7
			c8.8,1.8,21.6-0.5,30.2-1.2c3,3.6,8.9,0.7,13.6,0.8c5.8-0.1,12.7,2,19.1,3.4c12.6,2.9,24.2,6.4,35.4,9.9
			c6.1,1.8,12.3,3.1,17.5,5.3c1.8,0.7,3.5,2.3,5.9,1.9c-1.3-2.7-4.7-3.3-7.5-4.5c-3-1.3-5.6-3.3-8.5-4.6c-9.3-4.2-19.2-6.7-30.5-8.9
			c-13.9-2.8-29.1-7-46.3-5c-0.9,0-0.7-1.3-1.9-1.1c-1.5,0-2.1,0.6-3.6,0.6c-0.4-0.9-0.6-2-1.8-1.8c-3.1-0.6-8.2,1.4-10.3-0.3
			c-4.1,1.8-10.7,0.3-14.6,2.3C113.6,19.8,103.2,20.5,104.4,25.2z M93.1,37.4c-0.9-0.1-1.2-0.9-2.2-0.8c-1.5,0.1-2.1,1.4-3.7,2.3
			c-0.5,0.2-1.1,0.3-2,0.6c-2,1-2.5,0.7-4.6,1c-0.5,0.6-2,2.5-1.2,2.5c10.9,0.6,17.2-4.3,26.3-6.2c6.9-1.5,13.5-1.2,21-0.7
			c2.1,1.5,4.3,1,6.9,0.5c7.7-1.1,15.6,1.1,22.8,1.7c1.1,0.1,2.5,0,3.4,0.2c3.2,0.8,4.4,4.2,7.5,4.5c1.6-1.3,1.5-3.5,3.5-3.8
			c2-0.2,5,3,7.4,2.3c1.4-0.5,0.7-1.2,2.5-2.2c6.1,3,13.3,4.5,21,5.8c7.3,1.3,15.9,2,22,5.1c1,0.5,1.7,1.7,3,2.2
			c2.7,1.2,6.3,1.1,9.1,2.4c1.3,0.5,2.5,1.6,3.9,2.4c2.9,1.4,4.2,2.5,5.7,4.9c2.4,0.4,5.2-0.6,5.6-2.6c-5.2-3.3-10.7-6.4-16.4-9.1
			c-6.5,1-9-3.8-13.6-5.4c-2.7-0.9-5.8-0.7-8.8-1.4c-7.9-2-15.9-6.3-24.7-6c-2-1.8-6-0.4-9.5-0.1c-0.5-1.1-1.5-0.3-2.2-0.8
			c-1.1-0.7-1.1-2-2.2-2.5c-3.4-1.6-10.8,0.9-16,1c-2.9,0-5.8-0.5-8.7-0.9c-2.7-0.5-5.4-1.3-8.1-1.7c-3.1-0.4-6.2-0.4-9.4-0.8
			c-5.7-0.6-11.4-0.9-15.1,1.9C108.8,28.3,101.9,38.6,93.1,37.4z M141.6,42.1c-1.2-0.5-1.7-1.7-2.9-2c-1.8-0.3-4.7,0.7-6.8,0.9
			c-3.9,0.4-8.8-0.2-12.2,0.4c-10.5,1.9-21.8,2.8-30,5.3c0.1,1.6-1.8,1.5-2.5,2.4c-3.3-0.1-4.9,1.5-7.5,1.9c1.9,1.2,3.9,1.7,6.3,1.6
			c13.2-0.1,24.3-9.4,38.5-8.1c0.8,0.5,1.5,0.9,2.3,1.2c4.2-0.2,8.3-1.4,12.8-1.4c4.1,0,8.6,2,10.2-1.5
			C148.9,40.4,144.4,42.3,141.6,42.1z M69.3,54.4c-0.1,3.8,6,3.2,5.9,0.1c1.6-0.4,3.5,0.1,4.4-0.5C79.1,51.6,70.8,51.8,69.3,54.4z
			 M243.6,65.9c-3-1.3-5.9-3.4-8.3-4.7c-6-3.2-11.8-5.2-18.4-7.1c-10.5-2.9-21.3-3.1-31.8-5.4c-3.9-0.8-7.5-0.6-11.4-0.9
			c-5.3-0.4-10.7-2.8-15.9-2.2c-2.2,0.3-4.2,2-6.5,2.6c-4.3,1.2-10.2,1-15.6,1.5c-5.2,0.5-10.6,2-15.1,2.1
			c-4.9,0.2-10.1-0.7-14.8,0.4c-1.4,0.3-2.8,1.5-4.2,2.1c-3,1.2-6.4,1.7-9.7,2.6c-3.4,0.9-6.4,2.2-9.4,2.6c-0.8,0.2-1.2,1-1.9,1.4
			c-4.4-1.2-7.2,3.1-10.7,3.9c-3.1,0.8-6.9-0.4-8.9,2.1c4,4.5,9.8-0.9,14.7-2.6c5.4-1.9,11.4-1.1,13.9-4.3c4.7,0.5,8.5-2.9,14-3.5
			c5.1-0.6,10.9,0.3,15-1.1c1.1-0.5,2.4-2.3,3.7-2.3c1,0,2.2,1.2,3.1,1.4c3.4,0.7,9.2-1,14.2-1.3c1.6-0.1,3.4,0.3,4.7,0.1
			c1.9-0.3,2.7-1.3,4.3-1.6c3.4-0.8,7-0.7,10.2-1c11.8-1.1,21.4-0.6,30.2,1.5c6.6,1.7,13.1,2.3,18.2,4.7c1.4,0.7,3.4,2.9,5,3
			c1.2,0,2.6-1,4.1-1.1c3.7-0.4,7.3,0.8,10.8,2.1c3.3,1.4,6.9,2.4,9.7,3.8c2.7,1.3,5.3,3.7,7.9,5.1c3,1.7,5.8,3,9.5,3.6
			C252.4,68.9,248.6,68,243.6,65.9z M264.1,101.8c-5.2-5.1-10.3-10.5-17.7-12.8c-2-1.8-2.5-5.4-6.3-4.8c-2.5-3.2-5.5-5.9-10.4-6.1
			c-1.5-2.3-4.5-2.9-7.1-4c-3.7-3.5-7.9-6.6-12-9.7c-0.8,0.1-1.6,0.1-2.4,0.2c-6.9-5.7-21.2-5.7-32.1-7.8c-3.8-0.7-8.4-0.4-11.5-1.7
			c-1.6-0.6-1.6-1.9-3.6-1.6c-1,0-2.9,1.1-3,2.2c-0.1,3.2,5.1,1.9,7.6,1.7c3.3,0,7.5,0.6,10.7,0.9c4.5,0.5,9.3,2.5,14.2,4.1
			c14,4.8,26.4,12,38.8,17.5c1.3,0.5,2.4,0.3,3.2,0.9c0.8,0.6,1.2,1.8,2,2.5c1.8,1.7,4.4,3.5,6.7,5.5c2.2,1.9,4.7,4.3,6.7,5.5
			c2,1.3,4.5,1.9,5.8,3.5c1,1.2,1.7,2.6,2.6,3.7c1,1.2,1.9,2.1,3,3.2c2.1,1.7,4,4.1,8,3.4C267.3,104.5,264.2,105,264.1,101.8z
			 M228.5,85.4c-3.3-1.9-7.4-2.2-10.7-3.9c-1.8-1-3.4-2.2-5.2-3.2c-1.9-0.9-3.6-2-5.5-2.9c-4-1.9-8.1-3.2-11.8-5.1
			c-2.2-1.1-4.8-3.1-7.9-2.7c-6.7-4.4-19.8-4.5-29-6.5c-2.8-0.5-5.3-2.1-7.8-2.5c-2.1-0.3-5.1,0.4-8,0.7c-2,0.3-4.1,0-5.6,0.4
			c-1.1,0.2-2.3,0.9-3.6,1.1c-6,1-10.8-1.6-17.5-0.1c-3,0.6-5.7,1.7-9.1,2.3c-3.2,0.6-12.9,1.1-13.2,3.5c-0.2,1.4,1.4,2.6,2.9,2.4
			c1.3-0.1,2.2-1.6,3.2-2.2c8.6-4.6,26.4-2.1,37.8-4.8c3.6,4,11.1-0.2,17.3,0.3c1.6,0.1,3.4,1.2,5.2,1.5c5.7,1.2,11.9,1.3,16.8,2.6
			c1.9,2.3,5.1,1.4,8.6,2.1c3.3,0.9,4.7,3.6,8.6,2.6c3.2,3.3,7.1,5.1,11.7,6.8c8.4,3,16.8,7.1,24.9,10c0.8,3.1,4.8,2.4,5.7,5.4
			c-2.2,3-7.2-0.5-10.3-1.9c-3.3-1.6-6.2-2.6-9.2-3c-0.7,0.6,0.5,0.8,0.6,1c5.5,4.2,12.2,6.7,18.6,9.6c2.3,1,5.2,2.1,7,3.3
			c0.7,0.5,1.3,1.7,2.2,2.5c6.1,5.3,13.5,9.7,18.1,16.1c1.3,0.4,2.2,1.2,3,2.2c0.8-0.1,1.8-0.4,2.3,0.1c2.2,2.9,4.1,6.5,7.4,8.2
			c-2.6-3.8-4.3-8.5-8.2-10.7c-1-3.6-4.6-4.4-6.8-6.5c-0.1-0.6-0.1-1.3-0.1-1.9c-3.7-3.7-7.7-7-12.1-9.9c-0.8,0.1-1.5,0.1-2.2,0.2
			c-1.1-1.4-1.9-3.1-4.4-2.7c-0.1-0.8,0.1-2.2-0.9-1.9c-0.9-0.6-2.9,0.8-4.2,0.1c-0.5-2.7,1.9-3,4.6-3.1
			C238.1,89.5,233.3,88.1,228.5,85.4z M73.9,72.1c-1.1,0.3-0.4,1.9-1.3,2.1c-2,0.4-3.3,0-5.2,0.3c-1.2,2-5.2,1.5-8.1,2
			c-1.4,2.9-6.6,2.7-6.7,6.8c3.8,2.5,5.8-2.9,8.8-4.3c1.7-0.7,4.4-0.5,6.3-1.1c2.5-0.8,4.6-2.7,7.2-3.7c2.9-1,6-0.3,9-1.2
			c0.9-0.4,0.5-1.9,1.5-2.1c1-0.7,3.3-0.2,4.1-1.1C84.9,66.5,79.7,72.5,73.9,72.1z M117,68.6c-1,0.2-0.7,1.4-1.6,1.7
			c-1.6,0.4-2.6,0-4.2,0.1c-1,0.2-0.7,1.4-1.9,1.4c-4.2,1-8.9-0.2-11.8,1.1c-6.3,2.9-12.1,6.3-19.4,8.3c6.1,1.4,11.3-3.4,17.4-4.9
			c4.1-1,9-1.2,13.5-2.5c4.3-1.2,8.3-3.2,12-3.8c5.8-0.9,10.7,1.4,13.6-1.9C130.7,65.2,122.2,67.2,117,68.6z M182.8,74.7
			c-9.2-2.4-19.2-3-29-4.5c-2.9-0.5-8.3-2.1-11.9-0.1c-0.8,0.5-1.3,1.5-2,1.9c-3.4,1.5-8.1-0.2-12.7,1.1c-1.4,0.3-3.1,2.2-4.5,2.6
			c-1.7,0.7-3.8,0.6-5.6,1c-4,1.1-7.7,2.9-11.7,3.8c-4.3,1-8.5,1.7-12.5,3.2c5.1,1.2,9.4-0.9,14.3-2.3c3.4-1.1,7.2-1.7,10.6-2.5
			c7.2-1.7,14.4-3.7,21.5-4.7c29-4.4,50.3,6,70.9,12.5C202.8,81.4,193.4,77.5,182.8,74.7z M229,69.8c2.8,1.1,5.4,3.9,8.4,5.6
			c3.3,1.8,6.6,3,9.1,5c1,0.8,1.7,2.1,2.8,3c2.1,1.7,4.6,3.2,6.6,4.8c2.1,1.8,4.3,4.6,7.5,4c-1.2-6-6.9-7.7-11.3-10.3
			c-6.7-3.7-12.4-10.4-20.4-12.4c-3-3.3-8.4-3.8-13-5C219.5,69.7,225.2,68.4,229,69.8z M52.8,93.7c9.3-3,16-8,25.6-10.9
			C66.4,82.8,59,88.3,52.8,93.7z M269.8,139.1c-0.5-6.8-6.2-7.1-9.2-11.7c-0.7-1.1-0.8-2.7-1.6-3.8c-1.1-1.8-3.6-3.6-5.9-5.4
			c-6-4.4-10.4-8.4-16.7-12.5c-3.9-2.4-8.2-3.8-11.8-5.8c-1.7-0.9-3.1-2.6-4.8-3.5c-1.5-0.7-3.4-1.5-5.2-1.9
			c-1.9-0.6-4.2-0.3-6.1-1.3c-1.7-0.7-2.8-2.7-4.5-3.5c-2-0.9-4.7-1.4-7.1-2.3c-2.3-0.9-4.6-2.1-7-2.8c-5.3-1.6-10.8-1.7-15.6-3.4
			c-1.6-0.6-2.9-1.7-4.3-2.1c-5.7-1.3-13.8,0-21.4,0.3c-8,0.6-16.7,0.8-22.6,1.8c-1.7,0.2-1.9,1.1-2.7,2.4c-2,0.4-4.2-0.2-3.5,1.8
			c0.5,1.4,6.5-1,7.4-1.2c24.3-3.5,49.4-2.3,65.6,2.9c6.5,5.8,16.4,7.7,25,10.9c2.4,4.4,8.7,4.4,11.4,8.5c5.3,2.3,9.4,5.9,13.7,9.5
			c3.3,2.6,6.8,5,9.9,7.7c4.7,4.1,8.8,9.1,13,13.6c1.5,1.5,3.3,2.8,4.6,4.3c4.3,4.8,6.4,11.4,10.9,16.2
			C280.1,148.4,274.4,144.4,269.8,139.1z M78.9,89.5c0.6,2.3,4.9,1.6,6.2,0.2c0.2-2.9-1.8-3.3-4.4-2.7
			C81.5,88.9,79.5,88.5,78.9,89.5z M108.8,85.1c-1.2,0.5-2.2,2.3-3.4,2.8c-4.1,1.9-8.3,0.2-12.4,1.6c-1.4,0.5-2,2.2-3.6,3
			c-3.5,2-7.3,1.8-7.7,5.3c7-3.1,14-6.3,23.4-7.3c0.2-4.6,10-0.7,11.9-4.3C115.7,84.5,111.8,83.8,108.8,85.1z M64.3,96.8
			c4.8-0.7,8.7-2.3,10.5-5.5C70,91.8,64.7,93.2,64.3,96.8z M128.5,89.3c-1.8,0-3.3,1.7-4.9,2c-23,4.2-40.6,11-56,20.7
			c-5,3.2-9.4,6.9-14.2,10.5c-3.8,2.8-8,5-10.7,9.3c-6.7,2-8.8,8-13.1,11.8c-2.1,1.9-5.4,2.9-4.4,6.3c4.2,0.6,4.8-3.1,6.7-5.6
			c0.6-0.7,1.5-1.3,2.3-2.1c2.3-2.6,5.2-5.6,7.9-7.7c3.6-2.8,7.5-4.7,10.3-7.9c1-1.1,1.7-2.8,2.6-3.4c1.3-0.8,3.1-0.8,4.3-1.6
			c1.7-1.1,2.7-3.1,4.3-4.1c1.9-1.2,3.4-1.9,4.9-2.9c1.7-1.3,3.3-1.5,3.8-3.1c3.3,0,3.7-2,5.6-3c4-2.4,9.5-4.3,14.9-6.4
			c5.2-2.1,11.1-4.6,16-5.5c3.9-0.8,8.2,0.5,11.5-1.1c1-0.5,1.7-2.1,2.7-2.4c1.4-0.5,3.6-0.1,5.2-0.3c4.2-0.5,8.5-0.9,12.8-1
			c4-0.1,9.7,1,11.1-2.5C144.9,87,136.4,89.3,128.5,89.3z M271.9,160.6c-2.6-4-4.8-8.3-7.4-12.2c-15.1-23.6-36.6-40.3-63.2-49.4
			c-7.7-6.6-22.9-7.4-34.1-10.3c-1.5-0.4-3-1.4-4.3-1.5c-2.1-0.3-8.1,0.4-7.9,2.5c0.1,1.6,3.5,0.9,5.8,0.8c12.9-0.1,24.1,4,35.1,8.1
			c10.6,3.8,19.5,9.9,28.4,16c13.2,9,25.7,19.8,35.6,32.6c3.5,4.5,7.3,9,9.7,13.6s4,9,7.9,12.8C278.7,168.4,274.3,164.5,271.9,160.6
			z M285.9,209.6c-1.2-2.7-5.5-5-5.1-9.6c0-0.9-0.8-0.5-1.1-1.2c-0.4-0.8-0.1-1.9-0.5-2.7c-0.5-1-1.8-1.8-2.2-2.7
			c-1.7-3-2.7-6.8-4.2-10.2c-4.4-10.2-8.9-20-14.3-28.5c-3.1-1.7-4.7-5.3-7-8.2c-8.3-10.9-18-19.9-29.2-27c-4.4-2.8-9.5-4.8-14.1-8
			c-13.1-9.1-31-11.9-49.3-15.2c-9.7-1.8-20.7-2.3-28.6,1.7c5.8,2.7,15.2,0.8,22.5,0.6c22.1-0.6,39.1,9.2,55.6,15.1
			c3.6,2.8,6.9,5.3,10.1,8c1.4,1.1,2.7,2.2,4,3.3c2.8,2.3,5.7,3.7,8.9,5.8c8.1,5.4,12.2,15.9,20.4,23c1.5,1.2,3.2,2,4.4,3.3
			c4.3,4.4,8,12.6,10.6,19c1.5,3.4,3,6.9,4.4,10.4c1.5,3.4,3.8,7.1,4.7,10.4c0.5,1.7-0.1,3.6,0.7,4.8c0.5,0.8,2.2,1.1,2.9,2
			c3.6,4.1,2.8,11.7,6.4,16.5C286.4,216.5,287.1,212.3,285.9,209.6z M59.9,107.3c-4.8,1.5-9.5,3.3-10.4,8.1c6.4-2.3,11-5.9,15.6-9.7
			c2.6,0,4.2-0.9,3.6-3.6C64.4,102.8,61.1,104.2,59.9,107.3z M113,102.3c5.1-0.1,14.7,0.6,15.1-4.5C122.6,97.5,114,97.4,113,102.3z
			 M100.8,106.6c3.9-0.6,10.1-1.1,6-4.8c-1.4,2.9-6.9,1.8-10.3,3.4c-0.9,0.5-1.7,1.3-2.6,1.7c-3.1,1.6-7.3,2.2-7.6,5.9
			C90.5,112.3,95.3,107.5,100.8,106.6z M33.9,114.1c4.3,2.1,8.7-1.7,9.9-5C39,109.3,37.3,112.4,33.9,114.1z M155.1,104
			c-0.9-0.3-1.5-1.4-2.4-1.7c-5-1.9-11.7,0.6-16.8,1.8c4,6.4,17.6-0.6,24.8,1.9C159.9,103.8,157.1,104.7,155.1,104z M118.7,105
			c-0.9,0.4-1.3,1.7-2.5,2.2c-2.4,0.9-4.9-0.4-6.6,1.4c1.8,2.9,5.2,0.1,8-0.6c3.3-0.8,5.7-1.1,8.1-1.7c1.8-0.4,3.9-0.5,4.5-1.9
			C127.1,104.5,121.8,103.4,118.7,105z M42.1,117.1c-2.4,6.4-11,7.5-13.8,13.5c7.2-1,7.9-7.9,14.5-8.6c2.8-0.2,4.8-0.9,4-4
			C45.9,117.1,43.8,116.5,42.1,117.1z M75.4,118.2c-3.5,1.9-7.2,3.4-10.5,5.9c-2.5,1.9-4.6,4.6-7.1,6.1c-2.6,1.6-4.3,2.4-6.2,4.6
			c-5.2,5.4-12.9,9.3-14.9,17c-1.3,0.3-1.5,1.5-2.3,2.1c-0.6,0.1-1.3,0.1-1.9,0.1c-4,4.8-8.6,9.1-11.7,14.7c1,4.9-4.6,4.3-3.3,9.5
			c2.8,0.2,2.1-2.3,4.2-2.6c1.7-6.1,7.5-9.1,10.8-14.1c0.7-1.2,1-2.6,1.8-3.6c2.3-2.6,5.6-4.1,7.7-6.9c1.3-1.7,1.9-4,3.2-5.6
			c2-2.8,4.5-5.4,7.4-7.1c0.5-1.4,1.7-2.1,2.2-3.7c7-4.4,13.5-9.1,19.8-13.9c1.2,0,2-0.2,3-0.5c0.6-2.4,4.9-1.9,3.9-5.5
			C78.1,114.8,76.2,116,75.4,118.2z M74,128.2c-9.5,6-19.7,12.1-25.1,21.3c0-0.1,0-0.3,0.2-0.2c10.1-5.4,18.4-12.7,27-19.6
			c8.7-7.1,19-11.7,29.6-17.6C92.2,114.3,83.8,122,74,128.2z M87.1,131.8c2.3-1.5,5.4-1.8,7.9-3.5c1.9-1.3,1.9-2.3,3.6-3.6
			c3.2-2.2,8.2-4.3,12.7-6.2c5-2,9.9-3.6,15.1-4.4c2.6-0.3,1.8,0.2,4.7-0.2c5.6-0.9,3.3-4.7-0.9-4.4c-2.1,0.2-4,2.1-6.6,2.9
			c-1.1,0.3-2.1,0.1-3,0.3c-1.1,0.3-1.9,1-2.5,1.2c-2,0.4-4.3-0.2-5.9,0.3c-1,0.3-1.9,1.2-3,2c-3.2,2.1-6.7,4.6-9.8,6
			c-4.7,2.4-9.3,4-13.2,6.9c-1.6,1.3-2.7,2.9-4.4,3.8c-3.7,2.1-7.8,3.9-11.2,6.5c-1.5,1.2-3,2.7-4.5,4.1c-1.6,1.4-3.2,3.4-4.5,4.1
			c-1.3,0.6-2.4,0.4-3.2,0.8c-1.3,0.7-1.5,2.1-2.9,3c-2.3,1.6-4.9,2.2-6.8,3.4c-15.3,9-19.7,25.8-29.8,39.3c0,1.3,0.5,2.9,0.1,3.9
			c-1,1.2-3.6,1.3-4.7,2.4c0.3,2.3,0.2,5.4,0.8,7.3c2.3-0.4,2.4-2.4,3.1-3.9c0.3-0.6,1.7-0.2,1.6-1.1c2.8-6.1,8.9-10.7,10.9-17.8
			c0.6-2,0.5-4.2,1.4-6.1c1.4-2.8,4.3-4.8,7.3-6.1c3.9-4.4,6.6-9.5,11-13.7c3-2.8,7.5-4.2,8.9-8c1.9,0.1,2.8-1.8,4.2-2.6
			c1.9-1.1,3.9-1.4,5.6-2.6c5.3-3.2,9-7.3,12.9-11.3C84.8,135.2,85.5,133,87.1,131.8z M154.8,118.6c-3.5-1.8-10.6-0.7-14.4-1.1
			C143,120.2,150.6,118.4,154.8,118.6z M168.5,121.5c-1.1-1.9-3.8-2-6.3-2.2C162.7,121.6,166.2,122.9,168.5,121.5z M223.5,144.3
			c2.9,2.7,6.8,5.2,6.6,9.8c1.2,0.7,1.5,1.6,2,2.5c3.2,6.5,5.9,14.3,8.8,21.9c8.2,21.8,16.8,48,17.4,76.7c0.3,13.6-6.5,23.3-7.7,36
			c6.8-3.9,8-13.5,10-21.7c6-25.2-1.8-54.7-10.3-76.9c-4.1-11-8.4-21.1-13.2-31.1c-2.3-4.6-4.8-8.1-5.3-13.7
			c-5.9-3.8-9.6-10.2-14.6-14.4c-3.9-3.3-8.7-6.2-14-7.7c-0.1,0-0.3,0.2-0.2,0.2C208.5,131.6,216.9,138,223.5,144.3z M256.4,172.2
			c0.5,1.8-0.1,3.5,0.8,5.3c0.2,1.1,1.9,0.6,2.1,1.7c6.7,24.6,24.6,47.6,19.8,78.4c5.1-1.3,2.6-6.8,3.1-10.5
			c0.2-1.4,1.3-2.6,1.5-4.3c0.6-3.8-1.2-6.5-2.1-8.9c-1.9-4.6-2.9-10.1-5-15.5c-3.6-9.8-7.7-19.9-11.4-29.2
			c-2.1-5.2-4.5-10.3-5.6-14.7c-0.3-1.1-0.1-1.9-0.5-3c-0.5-1.2-1.8-2-2.6-3.2c-1.4-2.6-2-5.5-3.5-7.6
			C249.9,164.9,255.6,169.6,256.4,172.2z M132.3,176.4c-1,1.5-2,3-2.8,4.8c-12.7,9.6-16.7,26.5-24.8,40.2c-0.3,0.7,0.5,2.5,0.4,3.9
			c-6,3.5-7.6,10-10.6,16c-4.7,9.4-11.2,18-15.1,27.5c-2.7,1.6-5,3.3-6.6,5.8c-1.1,1.7-1.1,4.3-3.2,5.2c0,0.8-0.5,1.4-0.3,2.5
			c-2,2.2-5.2,3.9-6.5,6.8c-0.5,1.1-0.1,2.8-0.6,3.8c-0.7,1.4-3.8,2.3-3,5c-2.2,2.7-7.3,4.3-6.8,8.5c5.4-2.1,7.2-7.3,11.4-10.3
			c1.8-4,5.5-6.6,8.4-10.2c8.4-9.9,16.4-23.7,24.1-34.6c2.8-3.9,6.2-7.6,8.3-11.4c4.2-7.6,6.8-16.2,10.3-24.4
			c0.9-2.2,2.3-7.5,3.9-7.7c3-0.5,1.5,3.3,3.6,4.2c-9.2,25-23.5,45.8-37.8,66.7c-1,0-1.8,0.2-2.4,0.5c-2.6,3.6-6.6,6.4-8.9,10.2
			c-1.9,3.2-2.8,6.8-5.4,9.4c-0.6,0.1-1.3,0.1-1.9,0.1c-2,2-3.9,4.4-5.8,6.7c-1.7,2.1-4.9,4.4-3.9,7.7c2.5-0.2,3-2,3.9-3.6
			c3.6-1.1,5-5,8-6.9c0.8-0.6,2-0.6,2.9-1.2c2.7-1.6,5.2-4.9,7.8-7.7c6.2-7,10.7-15.3,17.2-21.1c1.4-1.2,3.3-2,4.6-3.4
			c2.6-3,2.5-8,6.2-10.2c0.2-2.6,2.4-4.5,3.6-6.5c9.1-14.9,16.2-30.9,17.5-52.2c-4.9-1.1-3.6,6.6-6.2,7c-1.5,0.3-2.6-1-2.6-3.5
			c1.2-1.5,2.5-3.6,4.1-5.6c1.4-1.7,3-3.6,4.1-5.6c1.9-3.3,1.3-7,4-9.5c2.4-2.3,4.8-1.2,7.6-2.9c0.3-0.9,0.4-2.1,0.2-3.4
			C137.2,176.1,134.6,175.5,132.3,176.4z M67.3,340.6c9-0.3,14.8-3,19.8-6.8c1.9-1.5,3.9-5,5.6-5.7c1.5-0.6,3-0.1,4.1-0.7
			c2-0.9,3-4.1,4.6-5.6c2-1.8,4.5-3.2,6.5-4.8c6.4-5.3,11.8-10.9,16.8-17.1c3.4-4.1,7.3-7.6,9.9-12.3c1.4-2.4,2.4-4.8,3.8-7.3
			c1.2-2.3,3.1-4.2,4.6-6.5c2.2-3.4,3.8-7.8,5.9-11.6c4.1-7.8,7.8-15.9,9.7-25.1c1.1-5.1,0.5-10,0.4-16.3c-0.1-7.4,1.8-15.2,0.7-23
			c-1.2-9.6-6.2-15-15.9-17.2c-0.1,0-0.3,0-0.4,0c-0.3,0.2-0.3,0.4-0.2,0.8c-1.5,0.6-3.2,0.6-4.6,1.1c-2.9,1.4-6.5,6.3-6.8,8.8
			c-0.3,2.1,0.7,4.7,0.7,7c0.5,18-5.1,34.7-12.3,47.5c-6.2,11.1-15.2,22-23.1,31.2c-1.2,1.5-2.1,3.2-3.3,4.4
			c-1.2,1.5-3.1,2.6-4.5,4.1c-7.4,7.9-12.8,15.6-20.5,23.4c-2.9,2.9-6.2,7.4-9.1,8.8c-2.3,1.1-5.1,0.8-6.9,1.6
			c-1,0.5-1.5,1.6-2.5,2.2c-1,0.6-2,0.7-2.9,1.2c-2.4,1.7-3.6,4.9-7.1,6.1c7.5,1,9.8-5,15.8-7.5c1-0.4,2.3-0.4,3.2-0.8
			c1.6-0.7,3.1-3.3,5.5-2.5c0.1-0.5-0.5-1.4,0.4-1.3c5.5-2.1,7.9-6.8,11.8-10.2c0.8-0.1,1.6-0.1,2.4-0.2
			c10.8-11.7,20.2-24.4,31.5-35.7c1.3-4.8,5.3-7.5,7.8-11.3c0.2-0.6,0.1-1.7,0-2.6c4-3.5,7.2-7.8,9.6-12.8c2.4-5,3.3-10.7,5.4-16.3
			c1.5,1.6,0.9,5.8,2.3,7.7c2,0.1,2-3.3,2.9-5.2c0.7-1.4,2.1-1.9,1.9-3.4c-0.4-2-3.2-2-5.3-1.9c-1.3-7,2.7-9.7,1.3-16.9
			c4.4-1.8,0-9.3,0.6-14.7c0.3-3,2.8-3.7,1.6-6.3c2-1.3,2.3-4,6-3.8c1.7,1.8,3,2,4.2,3.5c3.8,4.3,3.9,12.6,4.7,20.6
			c3.2,34.2-10.7,57-24.8,76.2c-4.5,6.2-8.7,12.5-13.3,18.1c-1.7,2-3.7,3.1-5.7,5c-1.5,1.5-2.5,3.4-3.9,5.1
			c-4.3,4.8-10.3,8.9-13.8,14.1c-1.1-0.1-1.5,0.5-2.4,0.8c-1,1.2-1.8,2.5-2.6,4c-1.4-0.2-2.4,1.7-4.5,1.7c-1.9,3.3-6.3,6-11.4,4.3
			c0.4-1.8,2.1-3,3.3-4c1.4-1.2,3.1-2.3,4.3-3.4c22.4-17.4,39.3-38.2,55.1-60.4c9.5-13.3,13.8-30.1,14.7-50.2
			c4.2-4.5-1-17.2-0.1-24.9c0-1-1.1-0.9-1.3-1.5c0.5-2.6-1.5-5.7-4.3-4.3c0.9,3.4-1.6,4.1-1.9,6.2c-0.3,1.6,0.6,3.4,0.7,5.1
			c0.6,3.8,0.6,8,1.2,12.3c-0.8,0.2-1.4,0.6-1.5,1.3c-1.3,5.6,2.2,12.2,1.2,18.1c-1,6.7-7.8,11.5-11.7,16.8
			c-0.9,1.2-1.4,2.8-2.3,4.1c-2,2.9-5.1,5.1-7.1,8.1c-2.2,3.3-3,6.9-5,9.8c-2,2.9-4.8,5.1-7.1,8.1c-1.1,1.4-1.8,3.3-2.9,4.8
			c-3.7,4.6-8.5,8.2-11.1,13.2c-0.5,0.5-1.8,0.4-2.4,0.8c-1.6,1.4-2.6,3.2-4,4.9c-1.4,1.7-3.5,2.6-4.9,4.2c-2.1,2.1-3.5,4.9-5.5,7.1
			c-6.2,7-13.8,12.3-20.7,18.8c-2.4,0.1-3.6,3-5.8,3.8c-3,1-6.4,0.6-8.1,3.3c2,3.2,5.1,1,7.1-0.2c2-1.1,5.1-2.1,6.6-3
			c1.3-0.8,2.4-2.1,3.6-3c3.2-2.3,6.8-4.3,10-6.8c5.9-5,11.5-11.2,17.2-16.4c3-2.8,6.5-4.9,9.3-7.6c3-2.7,4.3-7.2,8.6-8
			c0.3-2.3,2.3-4,3.6-5.8c2.8-3.6,5.2-7.8,8.1-11.1c1.5-1.8,3.7-3.1,5-4.9c1.1-1.6,1-3.6,1.7-5.4c1.6-4.1,4.7-7.8,7.1-11.5
			c2.4-3.9,4.2-7.9,7.1-11.3c1.7,8.1-2.6,13-5.9,18.3c-7.7,12.5-17.4,23.3-24.3,35.3c-6.4,3.2-9.8,9.6-14.8,13.7
			c-1.9,1.6-4,2.1-6.3,3.6c-3.3,2.1-5.6,6.3-8.3,9.4c-2.9,3.3-6,6-9.2,8.5c-0.5,2.7-2.5,3.8-4.2,5.3c-0.7,0.6-0.9,1.5-1.5,1.9
			c-0.5,0.4-1.6,0.3-2.2,0.7c-0.5,0.4-0.8,1.3-1.4,1.6c-4.4,2.6-9.9,4.4-14.8,6.6C54.9,348.5,61.7,344.2,67.3,340.6z M33.7,261.9
			c-0.7,1-1.8,1.8-2.6,3c-2,2.6-3.4,5-6.9,5.8c1.7,4-1.3,5.6-3.6,7.1c0.1,2.4,1.8,2.8,4.1,2.3c0.8-2.2,2.6-3.7,3.9-5.8
			c1.3-2,1.9-4.5,3.4-6.2c1.6-2,3.5-3.5,4.9-5.4c4.7-6,7.4-12.8,10.1-20.5c0-0.1-0.2-0.3-0.2-0.2C38.5,245.3,38.3,255.1,33.7,261.9z
			 M183.1,266.9c-1.3,1.5-4.1,5.6-1,7.3c3.1-1.6,3.2-5.8,5.3-8.1c0-1.8-0.7-2.8-0.7-4.6C183,261.3,182.5,263.5,183.1,266.9z
			 M260.5,308.6c0.9-1.4,2.9-2.2,3.9-3.6c2.1-3.1,1.7-6.9,3.7-10.9c1.1-2.5,3.4-4.2,4.6-6.5c2.6-5.3,3.5-9.8,5.9-16.1
			c0.9-2.3,3.7-6.4,3.5-7.7c-0.2-1.3-2.5-2.6-4.2-1.8c-1.7,0.8-0.8,4.4-0.9,6.3c-0.1,5.2-2.3,9.9-4.7,14.5
			c-2.3,4.3-4.5,8.9-6.6,13.2c-0.8,1.6-2.2,3.3-3,5c-0.9,1.9-1.3,4.2-2.2,5.6c-1.7,2.5-5.2,4.2-4.2,8
			C260.4,315.1,259.1,311,260.5,308.6z M91.3,362.4c1.7-0.6,1.7-1.8,2.6-3c16.7-7.7,32-17.5,44.3-29.3c4.1-4,9.3-7.7,11.8-12.2
			c1.9-3.3,3-6.6,5-9.8c5.7-9.1,13.9-17.7,14.7-30.3c0-0.1-0.2-0.3-0.2-0.2c-8.9,6.6-12.1,17.4-18,26.1
			c-4.8,7.3-10.8,14.5-16.7,21.2c-9.4,10.3-19,18.8-31.8,26.1c-4.1,2.4-8.5,5.1-13.3,6.7c-1.8,0.6-3.7,0-4.7,2.4
			C86,361.9,88.9,363.2,91.3,362.4z M41.7,312.9c-0.1,4.8-7.3,3.7-7.6,8.4c3.6-1.1,6.3-3.1,8.9-5c4,0.6,4.2-3.9,6.9-5.1
			c-0.1-1.5,0.3-2.2-0.6-3.2C45.9,307.9,44,311.2,41.7,312.9z M100.4,370.4c4.4,1.5,11.2-0.2,10.9-5.4
			C106.1,365.5,104.6,369.1,100.4,370.4z M90.2,376.3c-3.9,0.1-8.2,2.4-12.5,3.2c-3.9,0.6-8.9-0.2-8,3.9c5.5,1.9,9.5-2.9,14.6-4.2
			c2.6-0.6,6.3,0.4,8.4-0.5c1.4-2.4,2.9-4.7,5.1-6.4C94,371.2,91.8,374.5,90.2,376.3z M235.6,363.3c-1.5,4.4-7.5,3-11.3,5
			c-1.7,0.8-2.8,2-4.5,2.6c-5.4,2.2-11.9,2.7-16.9,5.3c-0.9,0.4-0.7,1.7-1.8,1.8c-1.3,0.1-2.7,0.2-3.9,0.4c-0.4,1.6-0.4,2.4-1.1,3.9
			c3.7,0.8,8.6-0.6,13.5-0.9c0.5-0.6,0.6-1.6,1.3-2.1c9.3-0.9,12.9-6.6,20.1-9.3c1.4-1.1,1.6-3.4,3.6-3.3c1.1,0,1.4,1.9,2.6,2
			c1.4,0.2,1.6-0.8,3.1-1.5c-0.1-1.5-0.3-2.7-0.4-4.2c-1.2-0.5-2.4-0.9-4.3-0.5C235.6,362.8,235.7,363.1,235.6,363.3z"/>
		<path class="st0" d="M132.1,10.2c2.5-0.2,5-0.4,7.6-0.7c4.8,1.2,15.1-2.1,15.3,3.7c-4.9,0.8-12.6-0.9-18.5-0.2
			c-2.5,0.2-7.1,2.4-7-0.7C129.5,10.8,131.2,10.8,132.1,10.2z"/>
		<path class="st0" d="M163.4,12.4c-0.3,2.4-5.6,3.5-6.5,1c-0.8-2.1,1.2-5,3.8-3.8C160.7,11.6,162.8,11.2,163.4,12.4z"/>
		<path class="st0" d="M115.1,22.9c3.8-2.1,10.4-0.6,14.6-2.3c2.1,1.7,7.3-0.3,10.3,0.3c1.3-0.2,1.5,0.9,1.8,1.8
			c1.5,0,2.2-0.6,3.6-0.6c1.1-0.3,0.9,1.1,1.9,1.1c17.3-2,32.4,2.2,46.3,5c11.2,2.3,21.1,4.6,30.5,8.9c3,1.4,5.5,3.3,8.5,4.6
			c2.8,1.2,6.2,1.8,7.5,4.5c-2.5,0.4-4.1-1.1-5.9-1.9c-5.2-2.2-11.6-3.4-17.5-5.3c-11.4-3.5-22.8-7.1-35.4-9.9
			c-6.4-1.4-13.3-3.5-19.1-3.4c-4.8,0-10.7,2.9-13.6-0.8c-8.6,0.6-21.4,2.9-30.2,1.2c-2.1-0.4-5-1.9-6.1-1.7c-1.5,0.3-1.3,2-3.2,2.6
			c-2,0.6-4.5,0-4.9-1.8C103.2,20.5,113.6,19.8,115.1,22.9z"/>
		<path class="st0" d="M116.6,33.9c3.7-2.8,9.4-2.6,15.1-1.9c3.2,0.4,6.4,0.5,9.4,0.8c2.7,0.3,5.4,1.3,8.1,1.7
			c2.8,0.3,5.8,1,8.7,0.9c5.1-0.1,12.6-2.6,16-1c1,0.5,1.1,1.9,2.2,2.5c0.8,0.5,1.8-0.4,2.2,0.8c3.3-0.2,7.4-1.8,9.5,0.1
			c8.9-0.2,16.8,4.1,24.7,6c2.9,0.7,6,0.4,8.8,1.4c4.6,1.5,7,6.4,13.6,5.4c5.7,2.8,11.1,5.8,16.4,9.1c-0.5,1.9-3.4,2.9-5.6,2.6
			c-1.4-2.4-2.8-3.4-5.7-4.9c-1.4-0.7-2.7-1.8-3.9-2.4c-2.8-1.2-6.5-1.1-9.1-2.4c-1.2-0.5-2-1.7-3-2.2c-6.1-3.1-14.7-3.8-22-5.1
			c-7.8-1.4-15-2.9-21-5.8c-1.8,0.9-1.1,1.9-2.5,2.2c-2.4,0.7-5.4-2.6-7.4-2.3c-2.2,0.3-2,2.6-3.5,3.8c-3.1-0.2-4.4-3.7-7.5-4.5
			c-1-0.2-2.4,0-3.4-0.2c-7.3-0.6-15.1-2.8-22.8-1.7c-2.7,0.4-4.9,1-6.9-0.5c-7.7-0.3-14.2-0.5-21.3,0.9c-9.1,1.8-15.4,6.8-26.3,6.2
			c-0.8-0.2,0.7-2.1,1.2-2.5c2-0.2,2.5,0,4.6-1c0.7-0.3,1.4-0.5,2-0.6c1.6-0.8,2.3-2.1,3.7-2.3c1,0,1.4,0.6,2.2,0.8
			C101.9,38.6,108.8,28.3,116.6,33.9z"/>
		<path class="st0" d="M149.7,42.8c-1.6,3.5-6,1.5-10.2,1.5c-4.4,0-8.6,1.2-12.8,1.4c-0.9-0.3-1.6-0.8-2.3-1.2
			c-14.1-1.2-25.2,8.1-38.7,8.3c-2.5,0-4.4-0.4-6.3-1.6c2.7-0.5,4-2.1,7.5-1.9c0.6-0.9,2.6-0.9,2.5-2.4c8.2-2.5,19.7-3.3,30-5.3
			c3.6-0.6,8.3,0,12.2-0.4c2.1-0.2,5-1.2,6.8-0.9c1.2,0.2,1.7,1.4,2.9,2C144.4,42.3,148.9,40.4,149.7,42.8z"/>
		<path class="st0" d="M79.5,54.1c-0.9,0.4-2.8,0-4.4,0.5c0,3.1-6,3.6-5.9-0.1C70.8,51.8,79.1,51.6,79.5,54.1z"/>
		<path class="st0" d="M254.4,73.6c-3.6-0.5-6.5-1.8-9.5-3.6c-2.6-1.6-5.2-3.8-7.9-5.1c-2.8-1.4-6.4-2.4-9.7-3.8
			c-3.5-1.4-7.1-2.5-10.8-2.1c-1.6,0.1-2.9,1.2-4.1,1.1c-1.6,0-3.6-2.3-5-3c-5-2.4-11.5-3-18.2-4.7c-8.7-2.1-18.4-2.6-30.2-1.4
			c-3.2,0.3-6.8,0.3-10.2,1c-1.6,0.4-2.4,1.2-4.3,1.6c-1.3,0.2-3-0.1-4.7-0.1c-4.9,0.4-10.7,2.2-14.2,1.3c-1-0.2-2.1-1.5-3.1-1.4
			c-1.3,0-2.6,1.9-3.7,2.3c-4,1.4-9.9,0.7-15,1.1c-5.4,0.6-9.3,4.2-14,3.5c-2.5,3.1-8.5,2.4-13.9,4.3c-5,1.7-10.7,7.1-14.7,2.6
			c2-2.3,5.9-1.4,8.9-2.1c3.5-0.8,6.2-5.2,10.7-3.9c0.6-0.4,0.9-1.2,1.9-1.4c3-0.3,6-1.6,9.4-2.6c3.1-0.9,6.7-1.5,9.7-2.6
			c1.5-0.6,2.8-1.8,4.2-2.1c4.6-1.1,9.8-0.4,14.8-0.4c4.4-0.2,10-1.7,15.1-2.1c5.5-0.5,11.2-0.4,15.6-1.5c2.2-0.6,4.2-2.4,6.5-2.6
			c5.1-0.6,10.5,1.7,15.8,2.2c3.9,0.3,7.5,0,11.4,0.9c10.6,2.1,21.3,2.4,31.8,5.4c6.6,1.8,12.5,3.9,18.4,7.1
			c2.4,1.3,5.3,3.4,8.3,4.7C248.6,68,252.4,68.9,254.4,73.6z"/>
		<path class="st0" d="M267.1,108.1c-3.9,0.6-5.9-1.6-8-3.4c-1.2-1-2.1-2-3-3.2c-0.9-1.1-1.6-2.4-2.6-3.7c-1.2-1.5-3.7-2.1-5.8-3.5
			c-1.9-1.2-4.6-3.6-6.7-5.5c-2.3-2.1-4.9-3.8-6.7-5.5c-0.8-0.7-1.1-2-2-2.5c-0.8-0.6-2-0.3-3.2-0.9c-12.5-5.5-24.8-12.8-38.8-17.5
			c-4.8-1.6-9.7-3.5-14.2-4.1c-3.2-0.4-7.4-1-10.7-0.9c-2.4,0-7.6,1.4-7.6-1.7c0-1.2,2-2.2,3-2.2c2-0.2,2,1.1,3.6,1.6
			c3.2,1.3,7.6,0.9,11.5,1.7c10.9,2.1,25.2,2.1,32.1,7.8c0.8-0.1,1.6-0.1,2.4-0.2c4.1,3,8.3,6.2,12,9.7c2.6,1,5.6,1.6,7.1,4
			c5,0.3,8,2.9,10.4,6.1c3.9-0.5,4.3,3,6.3,4.8c7.5,2.4,12.5,7.8,17.7,12.8C264.2,105,267.3,104.5,267.1,108.1z"/>
		<path class="st0" d="M240.9,94.4c-2.7,0.1-5.2,0.3-4.6,3.1c1.1,0.7,3.2-0.7,4.2-0.1c1.1-0.3,0.7,1.1,0.9,1.9
			c2.5-0.4,3.4,1.3,4.4,2.7c0.8-0.1,1.5-0.1,2.2-0.2c4.4,2.9,8.4,6.3,12.1,9.9c0.1,0.6,0.1,1.3,0.1,1.9c2.3,2.1,5.8,2.9,6.8,6.5
			c3.9,2.3,5.6,6.9,8.2,10.7c-3.4-1.6-5.2-5.2-7.4-8.2c-0.4-0.3-1.4-0.1-2.3-0.1c-0.7-1-1.7-1.8-3-2.2c-4.6-6.4-11.8-10.8-18.1-16.1
			c-1-0.8-1.4-2-2.2-2.5c-1.7-1.3-4.7-2.3-7-3.3c-6.4-2.9-13.2-5.4-18.6-9.6c-0.1-0.1-1.3-0.4-0.6-1c2.9,0.5,5.8,1.5,9.2,3
			c3.2,1.6,8,5,10.3,1.9c-0.8-3.1-4.8-2.4-5.7-5.4c-8-2.8-16.5-6.9-24.9-10c-4.6-1.7-8.7-3.4-11.7-6.8c-4,1.1-5.3-1.8-8.6-2.6
			c-3.4-0.9-6.6,0.1-8.6-2.1c-4.8-1.3-11-1.5-16.8-2.6c-1.7-0.4-3.4-1.3-5.2-1.5c-6.2-0.5-13.6,3.6-17.3-0.3
			c-11.4,2.6-29.1,0.3-37.8,4.8c-1,0.5-1.9,2.1-3.2,2.2c-1.5,0.2-3.2-1-2.9-2.4c0.3-2.3,10.1-2.9,13.2-3.5c3.4-0.6,6.2-1.7,9.1-2.3
			c6.7-1.5,11.5,1,17.5,0.1c1.3-0.1,2.5-0.9,3.6-1.1c1.5-0.2,3.6,0.1,5.6-0.4c2.9-0.5,6-1,8-0.7c2.5,0.4,5.1,1.9,7.8,2.5
			c9.4,2.1,22.4,2,29.2,6.3c3.2-0.3,5.7,1.6,7.9,2.7c3.8,1.8,7.9,3.1,11.8,5.1c1.9,0.9,3.7,1.9,5.5,2.9c1.8,1,3.5,2.3,5.2,3.2
			c3.4,1.8,7.4,2.1,10.7,3.9C233.3,88.1,238.1,89.5,240.9,94.4z"/>
		<path class="st0" d="M89.4,69.9c-0.6,0.9-3,0.5-4.1,1.1c-1.1,0.3-0.6,1.7-1.5,2.1c-2.9,0.8-6.2,0.1-9,1.2c-2.7,1-4.7,2.9-7.2,3.7
			c-1.9,0.6-4.6,0.2-6.3,1.1c-2.9,1.4-5,6.8-8.8,4.3c0.1-4,5.2-3.9,6.7-6.8c3-0.5,7.1,0,8.1-2c1.8-0.2,3.3,0.2,5.2-0.3
			c1.1-0.3,0.4-1.9,1.3-2.1C79.7,72.5,84.9,66.5,89.4,69.9z"/>
		<path class="st0" d="M134.6,68.2c-2.9,3.2-8,0.8-13.6,1.9c-3.7,0.6-7.7,2.6-12,3.8c-4.6,1.5-9.6,1.5-13.5,2.5
			c-6,1.5-11.2,6.2-17.4,4.9c7.3-2,13.1-5.2,19.4-8.3c2.7-1.3,7.4-0.1,11.8-1.1c1.1,0,0.9-1.2,1.9-1.4c1.5-0.1,2.6,0.2,4.2-0.1
			c1-0.2,0.6-1.5,1.6-1.7C122.2,67.2,130.7,65.2,134.6,68.2z"/>
		<path class="st0" d="M210.4,86.6c-20.6-6.4-42-16.9-71-12.4c-7,1.1-14.4,3-21.5,4.7c-3.4,0.8-7.2,1.5-10.6,2.5
			c-4.9,1.6-9.3,3.5-14.3,2.3c4-1.6,8.2-2.2,12.5-3.2c4-0.9,7.8-2.6,11.7-3.8c1.7-0.6,3.9-0.4,5.6-1c1.4-0.5,3-2.2,4.5-2.6
			c4.6-1.2,9.4,0.3,12.7-1.2c0.8-0.4,1.2-1.5,2-1.9c3.6-2,8.9-0.3,11.9,0.1c10,1.6,19.8,2.3,29,4.5
			C193.4,77.5,202.8,81.4,210.4,86.6z"/>
		<path class="st0" d="M218.6,64.7c4.8,1.2,10,1.7,13,5c8.1,1.9,13.8,8.6,20.4,12.4c4.3,2.5,10.1,4.1,11.3,10.3
			c-3.2,0.7-5.3-2.2-7.5-4c-2.1-1.7-4.5-3.1-6.6-4.8c-1-0.8-1.7-2.1-2.8-3c-2.6-2.1-5.9-3.2-9.1-5c-3.1-1.7-5.6-4.5-8.4-5.6
			C225.2,68.4,219.5,69.7,218.6,64.7z"/>
		<path class="st0" d="M78.3,82.9c-9.6,2.7-16.3,7.9-25.6,10.9C59,88.3,66.4,82.8,78.3,82.9z"/>
		<path class="st0" d="M281,158c-4.5-4.9-6.7-11.4-10.9-16.2c-1.3-1.5-3.2-2.7-4.6-4.3c-4.3-4.4-8.5-9.4-13-13.6
			c-3.1-2.7-6.6-5-9.9-7.7c-4.5-3.7-8.5-7.2-13.7-9.5c-2.7-4.1-8.9-4-11.4-8.5c-8.5-3.3-18.5-5.1-25-10.9
			c-16.1-5.3-41.2-6.4-65.6-2.9c-0.6,0.2-6.7,2.5-7.2,1.1c-0.7-2,1.6-1.4,3.5-1.8c0.8-1.3,1-2.2,2.7-2.4c6-1,14.7-1.3,22.8-1.7
			c7.7-0.4,15.8-1.6,21.4-0.3c1.5,0.3,2.8,1.4,4.3,2.1c4.8,1.7,10.4,1.9,15.6,3.4c2.3,0.8,4.5,1.9,7,2.8c2.4,1,5,1.4,7.1,2.3
			c1.7,0.8,2.9,2.8,4.5,3.5c1.8,0.7,4.2,0.6,6.1,1.3c1.7,0.5,3.7,1.2,5.2,1.9c1.8,1,3.1,2.6,4.8,3.5c3.6,2,7.9,3.4,11.8,5.8
			c6.3,3.9,10.7,8.2,16.7,12.5c2.4,1.7,4.8,3.6,5.9,5.4c0.8,1.2,0.8,2.7,1.6,3.8c3,4.6,8.7,4.8,9.2,11.7
			C274.4,144.4,280.1,148.4,281,158z"/>
		<path class="st0" d="M80.7,86.9c2.7-0.5,4.7-0.2,4.4,2.7c-1.1,1.4-5.7,2.1-6.2-0.2C79.5,88.5,81.5,88.9,80.7,86.9z"/>
		<path class="st0" d="M117.1,86.4c-1.8,3.6-11.8-0.4-11.9,4.3c-9.4,1.1-16.5,4.2-23.4,7.3c0.2-3.6,4.2-3.5,7.7-5.3
			c1.7-0.9,2.3-2.6,3.6-3c4-1.4,8.3,0.3,12.4-1.6c1.2-0.5,2.2-2.3,3.4-2.8C111.8,83.8,115.7,84.5,117.1,86.4z"/>
		<path class="st0" d="M74.9,91.3c-1.9,3.2-5.8,4.7-10.5,5.5C64.7,93.2,70,91.8,74.9,91.3z"/>
		<path class="st0" d="M151.9,89.2c-1.5,3.5-7.1,2.5-11.1,2.5c-4.2,0.1-8.5,0.4-12.8,1c-1.5,0.2-3.7-0.3-5.2,0.3
			c-1.1,0.3-1.8,2-2.7,2.4c-3.3,1.5-7.6,0.4-11.5,1.1c-5,0.8-10.8,3.4-16,5.5c-5.4,2.1-10.9,4-14.9,6.4c-1.9,1-2.4,3-5.6,3
			c-0.7,1.7-2.1,1.9-3.8,3.1c-1.4,1.1-3,1.7-4.9,2.9c-1.7,1.1-2.6,3-4.3,4.1c-1.3,0.8-3.1,0.8-4.3,1.6c-1,0.6-1.6,2.3-2.6,3.4
			c-2.8,3.2-6.7,5.1-10.3,7.9c-2.8,2.1-5.6,5-7.9,7.7c-0.7,0.8-1.7,1.6-2.3,2.1c-1.8,2.4-2.3,6.2-6.7,5.6c-1.1-3.5,2.2-4.4,4.4-6.3
			c4.4-3.9,6.3-9.9,13.1-11.8c2.7-4.3,7-6.6,10.7-9.3c5-3.7,9.3-7.4,14.2-10.5c15.3-9.6,33-16.3,56-20.7c1.6-0.3,3.3-1.9,4.9-2
			C136.4,89.3,144.9,87,151.9,89.2z"/>
		<path class="st0" d="M277.5,173.8c-3.8-3.8-5.5-8.1-7.9-12.8c-2.4-4.7-6.2-9.2-9.7-13.6c-10-12.8-22.5-23.6-35.6-32.6
			c-8.9-6.2-17.9-12.2-28.4-16c-11-4-21.9-8.1-35.1-8.1c-2.3,0.1-5.6,0.8-5.8-0.8c-0.2-2.1,5.8-2.8,7.9-2.5c1.6,0.2,2.7,1.2,4.3,1.5
			c11.2,2.9,26.3,3.7,34.1,10.3c26.6,9.1,48,25.9,63.2,49.4c2.4,3.9,4.7,8.2,7.4,12.2C274.3,164.5,278.7,168.4,277.5,173.8z"/>
		<path class="st0" d="M286.3,219.9c-3.7-4.7-3-12.2-6.4-16.5c-0.7-0.8-2.5-1.2-2.9-2c-0.8-1.3-0.2-3.2-0.7-4.8
			c-0.8-3.4-3.2-7-4.7-10.4c-1.5-3.5-3-7.1-4.4-10.4c-2.7-6.3-6.3-14.5-10.6-19c-1.3-1.3-3.1-2.1-4.4-3.3c-8.1-7-12.4-17.6-20.4-23
			c-3.3-2.2-6.2-3.4-8.9-5.8c-1.3-1.1-2.6-2.2-4-3.3c-3.3-2.6-6.6-5.1-10.1-8c-16.5-6-33.6-15.8-55.6-15.1
			c-7.3,0.2-16.7,2.1-22.5-0.6c8-3.9,19-3.6,28.6-1.7c18.4,3.4,36.2,6,49.2,15.3c4.7,3.2,9.7,5.3,14.1,8c11.1,7.1,20.9,16.1,29.2,27
			c2.2,2.9,3.9,6.6,7,8.2c5.3,8.6,9.9,18.3,14.3,28.5c1.5,3.4,2.4,7.1,4.2,10.2c0.5,0.9,1.8,1.8,2.2,2.7c0.4,0.8,0.1,2,0.5,2.7
			c0.3,0.6,1.1,0.2,1.1,1.2c-0.4,4.7,4,7,5.1,9.6C287.1,212.3,286.4,216.5,286.3,219.9z"/>
		<path class="st0" d="M68.9,102.4c0.7,2.7-1,3.6-3.6,3.6c-4.7,3.6-9.2,7.3-15.6,9.7c0.9-4.9,5.5-6.5,10.4-8.1
			C61.1,104.2,64.4,102.8,68.9,102.4z"/>
		<path class="st0" d="M128.1,97.6c-0.6,5.3-9.9,4.6-15.1,4.5C114,97.4,122.6,97.5,128.1,97.6z"/>
		<path class="st0" d="M86.4,112.9c0.2-3.8,4.4-4.3,7.6-5.9c0.8-0.5,1.6-1.3,2.6-1.7c3.3-1.7,8.8-0.6,10.3-3.4
			c4.1,3.7-2.1,4.2-6,4.8C95.3,107.5,90.5,112.3,86.4,112.9z"/>
		<path class="st0" d="M43.9,108.8c-1.1,3.3-5.5,7.3-9.9,5C37.3,112.4,39,109.3,43.9,108.8z"/>
		<path class="st0" d="M160.6,106c-7.2-2.6-20.8,4.5-24.8-1.9c5.1-1.3,11.8-3.8,16.8-1.8c0.9,0.3,1.5,1.4,2.4,1.7
			C157.1,104.7,159.9,103.8,160.6,106z"/>
		<path class="st0" d="M130.4,104.3c-0.6,1.4-2.7,1.4-4.5,1.9c-2.6,0.6-4.9,1-8.1,1.7c-2.7,0.6-6.2,3.4-8,0.6
			c1.6-1.9,4.1-0.4,6.6-1.4c1.1-0.5,1.6-1.8,2.5-2.2C121.8,103.4,127.1,104.5,130.4,104.3z"/>
		<path class="st0" d="M46.9,118.2c0.7,3.2-1.2,3.8-4,4c-6.5,0.7-7.3,7.6-14.5,8.6c2.7-6.2,11.4-7.3,13.8-13.5
			C43.8,116.5,45.9,117.1,46.9,118.2z"/>
		<path class="st0" d="M81.3,114.4c0.9,3.7-3.4,3-3.9,5.5c-0.8,0.2-1.7,0.6-3,0.5c-6.4,4.8-13,9.6-19.8,13.9
			c-0.4,1.4-1.7,2.3-2.2,3.7c-3,1.7-5.5,4.3-7.4,7.1c-1.3,1.8-1.8,4-3.2,5.6c-2.2,2.8-5.4,4.1-7.7,6.9c-0.9,1.1-1.1,2.4-1.8,3.6
			c-3.3,5-9.1,8.1-10.8,14.1c-2.2,0.3-1.4,3-4.2,2.6c-1.3-5.2,4.4-4.6,3.3-9.5c3.1-5.6,7.5-9.9,11.7-14.7c0.6-0.1,1.3-0.1,1.9-0.1
			c0.8-0.7,0.9-1.9,2.3-2.1c2-7.7,9.7-11.5,14.9-17c2-2.2,3.6-3,6.2-4.6c2.6-1.4,4.6-4.2,7.1-6.1c3.2-2.6,7-4,10.5-5.9
			C76.2,116,78.1,114.8,81.3,114.4z"/>
		<path class="st0" d="M82.3,135c-4.1,4.1-7.7,8.1-12.9,11.3c-1.7,1-3.8,1.4-5.6,2.6c-1.3,0.8-2.3,2.8-4.2,2.6
			c-1.4,3.7-5.8,5.1-8.9,8c-4.4,4.1-7.1,9.1-11,13.7c-2.9,1.3-5.8,3.3-7.3,6.1c-0.9,1.9-0.8,4.1-1.4,6.1c-2.1,7-8,11.7-10.9,17.8
			c0,0.8-1.4,0.6-1.6,1.1c-0.6,1.6-0.9,3.6-3.1,3.9c-0.6-2-0.5-5-0.8-7.3c1.1-1.2,3.6-1.1,4.7-2.4c0.4-1,0-2.6-0.1-3.9
			c10.1-13.5,14.5-30.3,29.8-39.3c1.9-1.1,4.5-1.8,6.8-3.4c1.2-0.9,1.6-2.3,2.9-3c0.8-0.4,1.8-0.2,3.2-0.8c1.4-0.6,3-2.7,4.5-4.1
			c1.6-1.4,3.1-3,4.5-4.1c3.3-2.5,7.5-4.4,11.2-6.5c1.7-1,2.7-2.7,4.4-3.8c3.9-2.8,8.5-4.5,13.2-6.9c3.1-1.6,6.6-4,9.8-6
			c1.1-0.7,2.1-1.7,3-2c1.7-0.5,3.8,0.2,5.9-0.3c0.7-0.2,1.4-0.9,2.5-1.2c0.8-0.2,2-0.1,3-0.3c2.5-0.7,4.5-2.6,6.6-2.9
			c4.2-0.4,6.5,3.4,0.9,4.4c-2.9,0.5-1.9-0.1-4.7,0.2c-5.3,0.7-10,2.4-15.1,4.4c-4.5,1.8-9.4,3.8-12.7,6.2c-1.8,1.2-1.8,2.3-3.6,3.6
			c-2.5,1.7-5.5,2-7.9,3.5C85.5,133,84.8,135.2,82.3,135z"/>
		<path class="st0" d="M140.2,117.5c3.8,0.4,10.9-0.6,14.4,1.1C150.6,118.4,143,120.2,140.2,117.5z"/>
		<path class="st0" d="M162.2,119.3c2.6,0.2,5.2,0.2,6.3,2.2C166.2,122.9,162.7,121.6,162.2,119.3z"/>
		<path class="st0" d="M202.7,125.8c-0.1-0.2,0.1-0.3,0.2-0.2c5.5,1.6,10.1,4.6,14,7.7c5.1,4.2,8.9,10.6,14.6,14.4
			c0.4,5.7,2.9,9.1,5.3,13.7c4.8,9.9,9.1,20,13.2,31.1c8.4,22.2,16.4,51.7,10.3,76.9c-2,8.1-3.1,17.8-10,21.7
			c1.2-12.6,8-22.3,7.7-36c-0.6-28.6-9.1-55.1-17.4-76.7c-2.9-7.6-5.5-15.3-8.8-21.9c-0.4-0.9-0.9-1.9-2-2.5
			c0.2-4.6-3.7-6.9-6.6-9.8C216.9,138,208.5,131.6,202.7,125.8z"/>
		<path class="st0" d="M253.4,161c1.4,2.1,1.9,5,3.5,7.6c0.8,1.2,2.1,2,2.6,3.2c0.4,0.9,0.3,1.9,0.5,3c1.1,4.4,3.5,9.5,5.6,14.7
			c3.8,9.4,8,19.4,11.4,29.2c1.9,5.4,3.1,10.9,5,15.5c0.9,2.3,2.7,5.1,2.1,8.9c-0.3,1.6-1.4,3-1.5,4.3c-0.6,3.7,1.8,9.2-3.1,10.5
			c4.8-30.9-13-53.8-19.8-78.4c-0.3-1.1-1.9-0.6-2.1-1.7c-0.9-1.9-0.2-3.5-0.8-5.3C255.6,169.6,249.9,164.9,253.4,161z"/>
		<path class="st0" d="M138.7,176.8c0.3,1.3,0.2,2.5-0.2,3.4c-2.8,1.8-5.3,0.8-7.6,2.9c-2.7,2.5-2.2,6.2-4,9.5
			c-1.1,2-2.7,3.8-4.1,5.6c-1.7,2-2.8,4.1-4.1,5.6c0,2.4,1.1,3.6,2.6,3.5c2.6-0.5,1.4-8.1,6.2-7c-1.2,21.3-8.5,37.3-17.5,52.2
			c-1.3,2.1-3.5,3.9-3.6,6.5c-3.7,2.2-3.5,7.2-6.2,10.2c-1.2,1.3-3.2,2.2-4.6,3.4c-6.6,5.7-11.1,14.2-17.2,21.1
			c-2.4,2.8-5,6-7.8,7.7c-0.9,0.5-2,0.6-2.9,1.2c-2.9,2-4.3,5.8-8,6.9c-0.9,1.5-1.3,3.3-3.9,3.6c-0.9-3.4,2.3-5.7,3.9-7.7
			c1.9-2.3,3.8-4.7,5.8-6.7c0.6-0.1,1.3-0.1,1.9-0.1c2.8-2.4,3.7-6.2,5.4-9.4c2.3-3.8,6.2-6.7,8.9-10.2c0.7-0.3,1.4-0.5,2.4-0.5
			c14.2-20.8,28.6-41.6,37.8-66.7c-2.1-0.8-0.7-4.6-3.6-4.2c-1.6,0.3-3.1,5.7-3.9,7.7c-3.5,8.2-6.1,16.9-10.3,24.4
			c-2,3.8-5.5,7.4-8.3,11.4c-7.6,11-15.7,24.7-24.1,34.6c-3,3.5-6.6,6.2-8.4,10.2c-4.2,3.2-5.9,8.3-11.4,10.3
			c-0.4-4.2,4.5-5.8,6.8-8.5c-0.8-2.7,2.2-3.6,3-5c0.5-1,0.1-2.8,0.6-3.8c1.4-2.8,4.4-4.5,6.5-6.8c-0.2-1.1,0.3-1.6,0.3-2.5
			c2.1-0.9,2.1-3.5,3.2-5.2c1.6-2.5,3.8-4.2,6.6-5.8c4-9.6,10.4-18.2,15.1-27.5c3-6,4.6-12.5,10.6-16c0.1-1.4-0.7-3.2-0.4-3.9
			c8-13.6,12-30.5,24.8-40.2c0.7-1.8,1.7-3.2,2.8-4.8C134.6,175.5,137.2,176.1,138.7,176.8z"/>
		<path class="st0" d="M46.1,348c4.9-2.2,10.6-3.8,14.8-6.6c0.6-0.3,0.7-1.2,1.4-1.6c0.6-0.4,1.6-0.3,2.2-0.7
			c0.5-0.4,0.9-1.2,1.5-1.9c1.7-1.6,3.8-2.6,4.2-5.3c3.3-2.5,6.5-5.2,9.2-8.5c2.7-3.2,5-7.3,8.3-9.4c2.2-1.5,4.5-2,6.3-3.6
			c5-4.1,8.3-10.6,14.8-13.7c6.8-12.1,16.6-22.8,24.3-35.3c3.3-5.3,7.6-10.3,5.9-18.3c-2.8,3.2-4.7,7.3-7.1,11.3
			c-2.2,3.8-5.4,7.4-7.1,11.5c-0.7,1.8-0.6,3.8-1.7,5.4c-1.3,1.8-3.4,3.1-5,4.9c-2.8,3.4-5.4,7.6-8.1,11.1c-1.3,1.7-3.3,3.5-3.6,5.8
			c-4.2,0.9-5.6,5.3-8.6,8c-3,2.7-6.3,4.8-9.3,7.6c-5.5,5.2-11.2,11.4-17.2,16.4c-3.1,2.6-6.7,4.6-10,6.8c-1.2,0.9-2.4,2.3-3.6,3
			c-1.5,0.9-4.5,1.9-6.6,3c-2.1,1.1-5.3,3.3-7.1,0.2c1.7-2.5,5-2.2,8.1-3.3c2.2-0.8,3.4-3.7,5.8-3.8c6.8-6.3,14.4-11.7,20.7-18.8
			c2-2.3,3.4-5,5.5-7.1c1.5-1.6,3.5-2.5,4.9-4.2c1.4-1.7,2.5-3.3,4-4.9c0.5-0.4,1.9-0.3,2.4-0.8c2.6-4.9,7.2-8.6,11.1-13.2
			c1.1-1.5,1.9-3.3,2.9-4.8c2.4-3,5.1-5.2,7.1-8.1s2.8-6.7,5-9.8c2-3,5.1-5.2,7.1-8.1c0.9-1.4,1.4-2.9,2.3-4.1
			c3.9-5.4,10.8-10.2,11.7-16.8c0.8-5.9-2.6-12.5-1.2-18.1c0.2-0.8,0.9-1.1,1.5-1.3c-0.5-4.2-0.7-8.4-1.2-12.3
			c-0.2-1.7-1.1-3.4-0.7-5.1c0.3-2.1,2.9-2.7,1.9-6.2c2.8-1.5,4.8,1.6,4.3,4.3c0.3,0.7,1.3,0.5,1.3,1.5c-0.8,7.8,4.3,20.4,0.1,24.9
			c-0.9,20.1-5.2,37-14.7,50.2c-15.8,22.3-32.7,43.1-55.1,60.4c-1.3,1-3,2.2-4.3,3.4c-1.2,1-2.9,2.2-3.3,4c5.1,1.7,9.5-0.9,11.4-4.3
			c2.2,0.1,3.2-1.8,4.5-1.7c0.8-1.4,1.6-2.8,2.6-4c0.9-0.2,1.2-0.8,2.4-0.8c3.4-5.2,9.3-9.3,13.8-14.1c1.4-1.7,2.5-3.6,3.9-5.1
			c2-1.8,4.1-3.1,5.7-5c4.6-5.4,8.8-11.9,13.3-18.1c14.1-19.3,28-42.2,24.8-76.2c-0.7-7.8-1-16.2-4.7-20.6c-1.3-1.5-2.5-1.7-4.2-3.5
			c-3.8-0.2-3.9,2.5-6,3.8c1.1,2.6-1.3,3.3-1.6,6.3c-0.6,5.4,3.7,12.8-0.6,14.7c1.3,7.2-2.6,9.9-1.3,16.9c2.1,0.1,5,0,5.3,1.9
			c0.3,1.5-1.3,2-1.9,3.4c-0.9,1.9-0.9,5.3-2.9,5.2c-1.4-1.9-0.7-6.1-2.3-7.7c-2.1,5.5-3,11.3-5.4,16.3c-2.4,5-5.7,9.1-9.6,12.8
			c0,1,0.2,2,0,2.6c-2.5,3.9-6.5,6.5-7.8,11.3c-11.2,11.3-20.6,24.1-31.5,35.7c-0.8,0.1-1.6,0.1-2.4,0.2c-3.9,3.5-6.3,8.2-11.8,10.2
			c-0.9-0.3-0.3,0.9-0.4,1.3c-2.4-0.8-3.8,1.8-5.5,2.5c-0.9,0.4-2.2,0.4-3.2,0.8c-5.9,2.4-8.3,8.4-15.8,7.5c3.6-1.2,4.6-4.4,7.1-6.1
			c0.8-0.6,1.8-0.6,2.9-1.2c1-0.6,1.4-1.7,2.5-2.2c2-0.9,4.6-0.6,6.9-1.6c2.9-1.3,6.1-5.9,9.1-8.8c7.8-7.8,12.9-15.6,20.5-23.4
			c1.4-1.5,3.3-2.7,4.5-4.1c1.2-1.2,2.1-3.1,3.3-4.4c8-9.4,17.1-20.2,23.1-31.2c7.1-12.9,12.7-29.5,12.3-47.5c-0.1-2.4-1-5-0.7-7
			c0.3-2.4,3.9-7.4,6.8-8.8c1.4-0.6,3.1-0.5,4.6-1.1c-0.1-0.4-0.1-0.6,0.2-0.8c0.1,0,0.3,0,0.4,0c9.7,2.3,14.7,7.6,15.9,17.2
			c1.1,7.8-0.9,15.7-0.7,23c0,6.3,0.6,11.2-0.4,16.3c-1.8,9.1-5.6,17.2-9.7,25.1c-2,3.8-3.6,8.2-5.9,11.6c-1.5,2.5-3.4,4.2-4.6,6.5
			c-1.3,2.4-2.4,4.9-3.8,7.3c-2.6,4.7-6.5,8.2-9.9,12.3c-5.2,6.2-10.4,11.7-16.8,17.1c-1.9,1.6-4.6,3-6.5,4.8
			c-1.6,1.6-2.6,4.7-4.6,5.6c-1.2,0.5-2.6,0-4.1,0.7c-1.7,0.7-3.7,4.2-5.6,5.7c-5.1,3.7-10.7,6.6-19.8,6.8
			C61.7,344.2,54.9,348.5,46.1,348z"/>
		<path class="st0" d="M284.4,184.4c0,1.1,0.2,2.1,0.2,3.2c-2.7,1.4-2.3-1.2-3.5-2.8c-1-1.5-2.2-1.9-2.6-3.2
			c-0.6-2.5-0.1-6.2,2.2-6.2C284.2,175.5,281.9,182.8,284.4,184.4z"/>
		<path class="st0" d="M46.8,241.9c0.2-0.1,0.3,0.1,0.2,0.2c-2.9,7.7-5.5,14.5-10.1,20.5c-1.5,1.9-3.3,3.4-4.9,5.4
			c-1.3,1.7-2.2,4.3-3.4,6.2c-1.3,2.1-3,3.6-3.9,5.8c-2.4,0.4-4,0.1-4.1-2.3c2.3-1.4,5.3-3,3.6-7.1c3.4-0.8,4.9-3.4,6.9-5.8
			c0.9-1.1,2-2,2.6-3C38.3,255.1,38.5,245.3,46.8,241.9z"/>
		<path class="st0" d="M186.8,261.5c0,1.8,0.7,2.8,0.7,4.6c-2.2,2.4-2.2,6.5-5.3,8.1c-3.1-1.8-0.3-5.7,1-7.3
			C182.5,263.5,183,261.3,186.8,261.5z"/>
		<path class="st0" d="M256.1,314.5c-1.1-3.9,2.5-5.5,4.2-8c0.9-1.5,1.3-3.8,2.2-5.6c0.7-1.8,2.1-3.3,3-5c2.2-4.3,4.3-8.9,6.6-13.2
			c2.4-4.7,4.7-9.3,4.7-14.5c0-1.9-1-5.4,0.9-6.3c1.7-0.8,3.9,0.6,4.2,1.8c0.3,1.5-2.6,5.4-3.5,7.7c-2.4,6.2-3.2,10.8-5.9,16.1
			c-1.2,2.5-3.4,4.2-4.6,6.5c-2,4.2-1.4,7.8-3.7,10.9c-1,1.4-3,2.2-3.9,3.6C259.1,311,260.4,315.1,256.1,314.5z"/>
		<path class="st0" d="M85.3,360c1-2.4,3-1.7,4.7-2.4c4.6-1.6,9-4.3,13.3-6.7c12.8-7.4,22.5-15.9,31.8-26.1
			c5.9-6.5,11.9-13.8,16.7-21.2c5.9-8.7,9.1-19.5,18-26.1c0.2-0.1,0.3,0.1,0.2,0.2c-0.7,12.6-9,21.1-14.7,30.3
			c-1.9,3.1-3.1,6.6-5,9.8c-2.5,4.5-7.8,8.3-11.8,12.2c-12.4,11.9-27.6,21.6-44.3,29.3c-1,1.1-0.9,2.4-2.6,3
			C88.9,363.2,86,361.9,85.3,360z"/>
		<path class="st0" d="M49.4,308c0.8,0.9,0.3,1.7,0.6,3.2c-2.8,1.2-2.9,5.6-6.9,5.1c-2.6,1.9-5.2,4-8.9,5c0.2-4.7,7.5-3.5,7.6-8.4
			C44,311.2,45.9,307.9,49.4,308z"/>
		<path class="st0" d="M111.3,364.9c0.4,5.1-6.5,6.9-10.9,5.4C104.6,369.1,106.1,365.5,111.3,364.9z"/>
		<path class="st0" d="M97.7,372.4c-2.2,1.6-3.7,4-5.1,6.4c-1.9,1.1-5.8-0.1-8.4,0.5c-5,1.2-9.3,6-14.6,4.2c-0.7-4.1,4.1-3.3,8-3.9
			c4.4-0.8,8.5-3,12.5-3.2C91.8,374.5,94,371.2,97.7,372.4z"/>
		<path class="st0" d="M235.6,362.6c1.8-0.4,3.1,0,4.3,0.5c0.1,1.5,0.3,2.7,0.4,4.2c-1.5,0.6-1.6,1.7-3.1,1.5
			c-1.4-0.2-1.5-1.9-2.6-2c-2-0.1-2.2,2.2-3.6,3.3c-7.2,2.6-10.7,8.3-20.1,9.3c-0.7,0.5-0.7,1.5-1.3,2.1c-4.8,0-9.8,1.7-13.5,0.9
			c0.7-1.4,0.8-2.2,1.1-3.9c1.3-0.1,2.7-0.2,3.9-0.4c1.1-0.3,0.9-1.5,1.8-1.8c5.1-2.7,11.5-3.1,16.9-5.3c1.6-0.7,2.8-1.9,4.5-2.6
			c3.8-1.9,9.9-0.5,11.3-5C235.7,363.1,235.6,362.8,235.6,362.6z"/>
		<path class="st0" d="M115.8,391.4c-4.7,0.4-9.4,0.9-14.2,1.3c0.5-4.2,8.6-2,12-3.4C113.6,390.9,115.6,390.2,115.8,391.4z"/>
		<path class="st0" d="M13.1,231.9c4.6-7,8.2-16.3,12-24c7.5-15,16.4-28.6,27.9-40.9c14.9-15.9,32.1-28.5,55.5-39.3
			c0.9-0.8,1.4-2.2,2.7-2.7c1-0.4,2.3-0.1,3.2-0.2c1.1-0.3,2.9-1.3,4.3-1.9c1.5-0.6,3.1-1.2,4.3-1.9c1-0.7,1.8-2.1,3-2.8
			c3.7-2.2,9.5-2.6,12.7,0.3c-2.8,2.4-9.7,1.5-11.9,4.6c6,0.8,15.9-1.2,21.5,0.9c-2.3,1.9-6.1,1.3-9.7,1.6
			c-3.5,0.3-7.6,1.7-10.2,0.7c-1.6-0.6-2.5-2.2-3.9-2.4c-1.6-0.3-3.6,0.5-5.3,0.9c-1.7,0.5-3.4,1.1-4.5,1.9c0.2,2.5,1.4,4,2.6,5.6
			c2.5,0.4,3.8-1.5,6-1.6c1.1,0,1.9,0.6,3.1,0.7c1.1,0,2.3-0.3,3.7-0.4c2-0.1,4,0.6,5.4,0.2c1.5-0.4,2.3-1.6,3.7-2.1
			c4.7-1.4,9,0.4,13.2,1.2c7.6,1.4,15.3,3.9,21.9,7.1c8.9,4.3,17.9,8.3,24.6,14.7c14.7,14.2,20.9,34.1,27.5,55.6
			c3.1,0.6,2.7,3.3,2.9,7.6c0.2,3.2,0.9,5.7-0.3,7.7c0.8,0.5,1.7,0.7,2.1,1.7c0.5,1,0,2.5,0.3,3.5c0.6,1.4,2.2,1.9,2.5,3
			c0.9,2.3,0.2,5.1,0.4,7.3c0.3,2.7,1,5.3,0.9,8c0.2,13.6-7.7,25.3-4.2,39.4c3.2-0.5,2.4-4.4,4.4-6c0.4-8.6,3-17.5,3.4-26.5
			c0.4-11.1-4.2-21.6-4.2-33.9c0-0.9-1.7,0.1-1.3-1.4c-6.9-27.8-13.8-52.5-30.6-68.3c-2.8-2.6-5.4-5.1-8.4-7.6
			c-2.7-2.4-5.7-5-8.8-6.8c-2.1-1.3-5.3-2.1-8-3.4c-1.6-0.8-2.9-2.3-4.4-2.7c-2.1-0.7-5.4-0.9-8.6-1.7c-2.8-0.7-5.9-1.5-8.3-1.7
			c-2-0.1-5,1.3-5.8-1.7c1.7-0.9,3.2-2,5.5-1.8c1.2,0.2,2.8,1.9,4.1,2.3c4.4,1.5,10.4,1.2,13.7,2.4c0.9,0.3,2,1.5,3.1,1.9
			c2.7,1.2,5.6,1.6,8.2,2.7c36.5,16.1,52,63.5,59.3,115.4c0.2,2,1.2,4.5,0.6,6.4c-0.2,1-1.2,1.2-1.7,2.4c0.3,9.5-3.6,17.1-4.9,26.4
			c-0.4,2.6-0.6,7.2-2.7,7.6c-1.8,0.4-2.3-2-3.9-2.1c-3-0.2-3.6,3-3.9,6.1c-0.7,0.8-2.4,0.8-3.1,1.5c0.2,1.5-0.8,2.2-1.4,3.1
			c-0.8,9.9-9.3,13.6-10.9,23c5-0.4,6.1-5.5,8.5-8.5c0.9-1.1,2.2-1.5,3-2.5c2.6-3.4,2.9-8,5.9-11.2c0.1-3,0.6-5.7,3.6-6.5
			c2.3,3.9-2,7.2-3.1,10.5c-0.4,1.2-0.2,2.4-0.6,3.5c-0.8,2.2-2.8,3.8-3.6,5.8c-0.4,1.1-0.1,2.5-0.6,3.8c-0.6,1.5-2.3,3.6-3.5,5.2
			c-1.3,2-2.4,3.9-4,4.9c-1,0.6-2.2,0.7-3.1,1.2c-6.2,3.8-9.7,10.3-12.4,16.5c-5,2-6.2,7.3-13.6,7.5c1,3.2-1.7,5.1-6,4.8
			c-1,2.2-4,2.7-4.4,5.3c8.8-0.5,14.2-5.2,19.8-9.5c13.2-10.3,22.2-24.1,33.3-35.5c-0.4-7.1,5.8-11,7-16.7c0.3-1.5-0.2-2.9,0.1-4.7
			c0.5-4.5,2.6-8.9,4-13c1.5-4.2,3.1-8.3,4-12.7c1.8-9.1,1.4-20.6-0.3-32c-1.6-10.9-2.9-21.9-5.5-32.2
			c-9.9-39.2-28.9-68.1-59.7-83.5c-4-1.9-7.6-3.7-11.4-5.5c-1.9-1-4.1-1.9-6.1-2.4c-2.4-0.5-4.7-0.1-7.7-0.3c-2.6-0.2-5.5-1.4-9-1.4
			c-3,0.1-7.4,2.3-9-1.1c3.8-3.5,8.4,0,12.7,0.6c2.4,0.3,5-0.4,7.4-0.2c4.5,0.2,8.5,1.2,12.1,2.9c1.8,0.7,3.1,2.2,5,2.7
			c2.9,0.9,5.7,0.1,8,1.3c1.6,0.8,2.4,2.8,3.8,3.5c5.2,0.3,7.3,4.2,10.3,7.2c0.8-0.1,1.6-0.1,2.4-0.2
			c29.2,18.6,42.8,56.3,50.6,100.7c1.3,1.4,2.4,1,3.2,2.6c0.8,1.5,0.4,3.4,0.5,4.9c0.7,12.9,0.6,22.8-2.2,33.7
			c-1.8,7.1-4.4,14.2-7.3,20.7c-1,2.2-2.8,4.2-3.1,6.3c-0.3,1.5,0.2,2.9-0.1,4.3c-1,4.4-4.6,6.6-4.7,10.9c-1.4,0.1-2.7,2.5-1.1,3.6
			c1.6,0.6,2.5-1.7,3.4-2.8c2.6-3.6,7.4-8,7.6-13.1c0.1-2.5-1.6-8.1,3-7.2c4.4,0.9,1.1,7.8,0,9.8c-0.7,1.4-2.1,3-2.9,4.8
			c-0.9,1.9-1.3,4-1.9,5.3c-1.1,2.2-4.7,3.7-3,6.6c3.3,0.3,3.2-2.2,4.3-3.6c2.3-0.4,2-3,4.2-3.6c0-2.8,2.6-4.3,3.6-6.6
			c2.1-5.5,2.8-11,6.2-15.7c1.2-1.6,2.8-2.6,4-4.3c-1.1-2.9,0.1-5.6,0.8-7.5c1.3-4.2,2.3-9.5,3.5-14.7c1.2-5,2.8-10.4,2.5-15.3
			c-0.3-5-1.7-9.8-1.5-16.1c-0.8-0.7-0.6-1.8-1.2-2.5c-0.9-1.2-1.9-1-2.5-3c-0.5-1.8,0.3-3.8-0.3-5.9c-0.3-1.4-1.5-3-2.2-4.4
			c-1.9-4.5-3.4-9.9-5-15.4c-1.9-6.9-3.3-14.8-6-20.9c-0.5-1.3-1.4-2.1-1.8-3.3c-0.8-2.2-0.7-4.4-1.4-6.7c-0.6-1.9-2.1-3.9-3.1-5.8
			c-2.6-5.6-5-13.3-8.3-17.9c-2.2-3.2-5.8-5.9-8.7-8.3c-3.2-2.6-6.6-4.8-9.1-7.8c-0.6-0.4-0.2-2.2-0.7-2.6c-2.1-1.4-4.5-1.7-6.6-3
			c-1.3-0.8-2.1-2.3-3.4-3.2c-2.9-1.7-7.2-2.6-11-3.9c-10.7-3.8-22.4-7.5-32.9-11.4c8.7,0.4,17,2.7,24.4,5.3
			c17.4,6.2,33.2,14.4,45.1,26.8c5.4,5.5,9.6,11.5,12.7,19.7c1,2.6,1.2,5.5,2.3,8.7c0.4,1,1.2,1.8,1.5,2.9c0.7,2.2,0.5,4.9,1.4,6.7
			c0.8,1.5,2.1,2.8,2.9,4.2c1.4,2.7,1.5,5.7,2.6,9.7c0.3,1.1,1.3,2,1.5,3.3c0.5,2.4-0.2,5.1,0.7,7.6c4.2,1.5,4.5,7.8,6.1,12.4
			c0.6,0.7,1.9,0.6,2.3,1.5c3.1,11.8,5.9,25.8,6,39.6c0,0.8-1.5,0.2-1.1,1.3c-0.5,11.9-5.5,20-7.7,30.6c-2.3,1.6-2.1,3.3-3.4,6.2
			c-1,2.5-3.5,5.1-4.5,7.5c-0.6,1.4-0.6,3-1.1,4.3c-1.2,3.1-4.5,5.8-5.3,8.6c-0.4,1.3,0,3-0.5,4.3c-0.6,1.4-2.8,2.3-3.9,3.6
			c-0.7,0.9-1.2,2.2-1.9,3.1c-2,2.6-4.4,5.9-7.1,8.3c-9.6,8.2-23.1,15-33.8,22.7c-3.7,2.7-6.8,6.1-10.4,8.1c-2,1.1-5.2,1.7-5.8,4.2
			c3.2,1.9,6.8-1.2,9.4-2.6c14.7-8.1,29.9-17.1,42-27.6c2.5-2.1,4.8-4.4,6.8-7.1c1.6-2,3.7-6.4,7.2-4.7c-1,5.8-7.1,7.4-7.1,14.3
			c-4.9-0.6-5.3,3.3-7.7,5.3c-6,5.3-16,8-23.2,12.6c-2.2,1.5-4.5,3.1-5.7,5.2c4.5,1.2,7.6-2.3,12.1-2.6c0.8-2.2,4.3-2.6,7.7-2.7
			c4.2-3.6,9-6.4,13.6-9.4c4.6-2.9,8-8,13.5-9.1c0.7,4.4-9.1,5.7-9.5,9.5c0,0.8,0.2,1.3,0.1,1.9c0.7,0.8,1.7,1.3,3.3,1.1
			c1.6,0.1-0.3-2.5,1.2-2.3c1.2,0.2,3.3-0.8,3.7,0.1c0.6,3.5-5.1,5.4-8,4.2c-1-0.4-0.8-1.2-1.9-1.5c-4,0.3-5.8,3.3-9.1,5
			c-0.9,0.4-1.8,0.5-2.9,1c-0.8,0.4-1.5,1.2-2.3,1.5c-0.8,0.2-1.7,0.2-2.4,0.5c-3.7,1.2-7.6,3.5-11.9,5.3
			c-9.9,4.2-19.9,8.4-29.5,13.2c-3.8,1.8-5.8,2.5-7.3,5.4c-9.8,0-20.2,2.8-29.7,3.1c-5.4,0.2-10.9-2.6-17.4-0.5
			c-1.1,0.3-2.1,1.6-3.5,2c-2.1,0.8-4.8,1.2-6.9,1.5c-2,0.1-4.7,0.3-5.8-1.7c10.8-2.1,17.4-7.6,28.5-9.6
			c-4.4-10.1-14.9,1.7-24.2,1.8c-0.9,1.1-2.9,1.3-4.5,1.7c-1.1,0.2-0.2,1.8-1.1,1.9c-7.2,1.2-16.4,4.3-24.4,4.6
			c-2.8,0-5.9-0.1-7.8-1.8c2.8-2.2,5.8-0.9,9-1.2c8.2-0.3,15.2-5.5,23.3-3.9c0.8-3.2,3.3-3.7,6.7-4.9c8.9-2.9,19.9-11.9,28.2-17.9
			c1.7-1.2,8.7-5.1,8.8-6.6c0-0.8-1.1-1.2-1.1-2.1c-10.4,4.5-18.8,12.4-29.4,17.6c-4.9,2.4-10.9,3.8-13.8,8c-2.4,0.8-5.2,1.8-8,2.3
			c-2.4,0.4-7.5,1.1-8.2-0.3c-1.3-2.9,3.3-3,5.1-3.2c5.2-0.6,9.1-2.3,13-4.2c1.9-1.1,3.9-1.6,5.6-2.6c1.7-0.9,3.2-2.7,5-3.9
			c6.4-4.3,14.3-8.3,19.7-13.1c1.1-0.9,2.7-2,2.2-3.7c-7.4,0-11.4,6.5-16.8,9.5c-2.8,1.5-5.8,2.3-8.6,3.8c-2.6,1.4-5,3.2-8,3.8
			c-0.9-5.3,4.9-4.7,8-6.4c1.3-0.7,2.3-2.1,3.6-3c3.8-2.5,10.2-4.4,10.2-9.9c-6.2,1.4-11,5.1-16,8.4c-12.2,8-26.5,13.9-42.9,18.6
			c-3.1,1-6.6,1.5-9.6,2.8c-1.4,0.6-1.6,1.5-3.5,1.8c-1.8,0.2-4.8,0-4.3-2.5c0.4-2.5,8.6-2.2,11.5-2.8c11.1-2.4,23-6.4,31-11.1
			c11.3-6.7,23.5-14.2,32.4-22.3c4.6-4.2,8.7-9.2,12.8-14.1c4.1-4.9,8.2-9.9,11.7-15c6.3-9.4,10.1-20,16.4-29.4
			c0.7-1.1,1.7-2.8,3.2-3c2.8,7.2-2.2,13.2-6.4,16.9c-3.7,14.9-12.8,25.5-21.7,36.3c-1.2,1.5-3.1,3-2.9,5.2c4.3,1,7.7-4,10-6.7
			c18.7-20.6,27.4-51.8,38.4-77.8c-0.9,35.1-18.9,58.8-36.4,81.6c-1.4,1.8-2.8,3.6-2.5,4.9c1.7,5.1,7.4-3.3,8.9-5
			c2.3-2.9,4.7-4.9,6.5-7c2.1-2.6,3.7-6,5.6-9.1c12.7-20.7,23.2-45.9,26.2-74.5c-0.1-0.9,1.6-0.1,1.1-1.3c-1-10.4-2-20.9-3-31.3
			c-1.9-0.8-1.1-4.7-3.6-4.3c-2.3,0.3-1.6,5.4-1.2,8.3c0.9,4.8,2.2,10.5,2.3,16.8c0.1,5.9,0.1,11.8-1.5,15.1
			c-5.1-2.8-2.1-13.4-2.2-18.2c-0.1-1.6-0.9-7.1-3.4-6.7c-1.3,0.3-2.7,5.9-2.8,7.4c0.1,5.1,3.3,11.5,2.2,15.6
			c-0.4,1.3-1.4,1.2-1.7,2.4c0.1,1.2,0.2,2.4,0.4,3.7c-2,2.1-1,6.7-2.6,9.2c-1.3,0.1-2.7,0.2-3.9,0.4c-0.5-1-1.3-1.8-1.5-3.3
			c0-1.2,2.5-0.4,2.3-1.7c0.9-8.7,3.7-17.1,1.3-27.8c-5.3,1.8-3.2,9.4-3.2,15.3c0,6.2-2.1,12.7-3.9,18.3c-1.5,4.4-3.2,8-5.5,11.7
			c-0.7,1-1.2,2.8-2.7,2.7c-1.2-1.8-0.8-3.9-0.4-5.6c0.4-1.4,0.8-3.6,1.5-5.2c0.7-1.2,1.8-1.7,2.2-3c0.8-2.5-0.3-5.7,0.4-8.6
			c0.5-2,2.4-3.9,0.7-7c-2,0.8-1.4,3.2-2.3,5c-0.5,1-1.5,1.8-2,2.9c-1,2.4-1.2,6.2-2.4,9.1c-1.1,2.8-3.7,4.5-2.1,9.1
			c-2,4.3-6.5,6.6-7.7,11.5c-1.2,0.8-2,2-2.9,3c0.4,1,0.6,2.3,0.3,3.5c-1.2,1.9-5.8,2.3-6.4,0.2c-0.3-1.1,1.4-4.2,2.2-5.9
			c5.5-12.5,15.6-23.8,14.9-40.3c-6.4,8.4-9.7,20.5-14.3,31c-1.6,3.5-3.6,6.6-5,10.1c-0.5,1-0.6,2.3-1.1,3.3c-2.1,4.2-7.3,5.9-7,12
			c-1.8,0.6-3.4,1.5-4.6,2.7c-2,2-2.5,4.8-4,7.1c-0.7,1.2-2.4,2.9-3.7,4.3c-1.4,1.5-2.4,3.2-3.5,4.2c-1.3,1.3-3.2,2.2-4.6,3.4
			c-3.7,3.3-7.9,8.8-11.7,11.4c-2.3,1.6-5.2,1.8-6.1,5.3c6.7,0.2,9-2.7,12.7-5.9c12.5-10.7,23.3-26,33.7-37.3
			c0.2,11.7-9.8,15-12.2,24.5c-16.4,11.9-27.7,28.2-51.2,34.2c-2.9,2.6-7.6,3.3-11.6,5.3c-6.1,2.9-12.8,6.9-21,8.4
			c5.5-3.6,11.3-6.7,18-9.6c2-0.9,4-2.1,6.1-3.1c1-0.4,2.2-0.4,3.2-0.8c2-0.9,3.3-3.4,6.8-3.1c2.5-1.8,5-3.4,8.1-5.2
			c2-1.1,8-3.1,7.3-5.9c-0.3-1.1-2.6-2.2-5.7-1.2c-1.1,0.3-2.5,2.4-4.3,3.4c-4.1,2.2-9.1,4.7-14.8,6.6c-5.5,1.8-11.4,3.3-15.7,5.6
			c-1.7,0.9-3.3,3-4.9,2.9c-1.5,0-3.4-1.6-3-3.2c0.4-1.8,4.1-1.5,5.5-1.8c6.2-1.2,13.1-4.6,18.8-6.9c2-0.8,4.3-1.4,6.3-2.4
			c3.1-1.6,6.3-4.8,9.4-7.1c9.3-7.1,17.6-14.7,26.8-22c1.6-3.5,3.1-6.6,5.8-9.2c1.2-1.2,3.2-1.8,4.4-3.1c0.7-0.7,2.9-4,3.3-5
			c0.3-0.9,0.1-2.3,0.4-3.3c1.4-3.6,6.4-5.8,7-10.3c11.8-14.3,19.1-33.6,22.6-55.7c1-5.6,1.8-10.2,0.4-17.1c0.4-1.5,2.3-1.9,2.8-3.2
			c-1.1-6.5-2.8-12.9-5.6-17.9c-2.6-4.3-6.7-9.7-10.7-11.5c-2.3-1-5.5-1.9-8.5-3.1c-4.3-1.7-10.8-3.6-15.9-0.2
			c-2.6,1.8-5.7,6.7-8,10.1c-6,9-10.3,18.4-16,28.4c-2,3.5-3.8,4.7-2.8,9.4c-2.6,1.2-4.8,3.6-3.8,7c-1,0.7-2.7,0.7-3.5,1.6
			c-0.5,0.8,0.2,2.4-0.2,3.2c-7.9,13.3-16.6,27-24.3,40.8c-2,3.8-3.2,7.4-5.7,10.5c-2.3,2.9-4.9,5.6-7.8,8.6
			c-5,5.4-10.2,12.6-18.8,14.1c-0.5-3.7,3.5-3.5,5.5-5.2c0.8-0.7,1-2.2,1.7-3.1c2.1-2.8,5.2-5.2,7.5-8.1c2.4-2.9,4.5-6,6.5-9.1
			c7.7-5,7.4-16.7,14.7-22c5.5-20,16.3-35.7,26.8-51.6c2.6-14.3,10.4-24.2,21.4-31.7c3.9-9.8,20.2-7.4,27.7-3.6
			c1.5,0.7,2.8,2,4.4,2.7c3.2,1.4,5.5,2.2,8,4.2c5.7,4.6,9.5,11.5,11.4,21.4c1,4.8,1,8.3,4.4,10.4c0.8,2.2,2.2,5.2,4.2,4.9
			c-1-11.6-5.2-23.9-10.5-32.8c-4.4-7.3-10.9-14.1-18.3-16.6c-2.9-0.9-7.5-1.2-11.3-2.3c-1.7-0.5-3.5-2.1-5.1-2.3
			c-1.6-0.1-4.1,0.2-6.1,0.6c-8.9,1.8-16.2,9.7-21.4,16c-2,2.4-4.6,4.8-5.5,6.7c-1.8,3.5-1.5,7.9-5.4,9.7c0,1.1,0.2,2.1,0.2,3.2
			c-5.3,8.2-10.6,16-15.4,24.9C73,238.9,65.5,256,57,272.4c-0.3,0.7,0,1.9,0,3c-4.4,4.6-6.3,11.1-12.8,13.8
			c-1.2,2.7-3.9,6.5-7.6,5.6c-0.9-3.1,2.1-5.5,3.8-7.3c1.8-2,4-4,5.4-6.2c0.9-1.4,1.1-3.1,2.1-4.3c1.5-2.3,3.3-3.8,4.7-5.9
			c4.1-6.3,6.3-13.5,8.9-21.8c5.9-19.5,17.5-37.2,27.9-54c5-7.9,9.6-18.8,17.1-24.4c1.6-1.3,4.3-1.9,6.4-3.1
			c5.7-3.3,10.2-9.9,18.3-10.6c0.2-1.2,1.5-0.6,2.4-1.2c1-0.7,1.1-1.6,2.3-2.1c1.9-0.9,5.5-1.4,8-0.7c1.9,0.5,2.5,1.8,4.4,2.3
			c1.9,0.6,3.7,0.4,5.5,0.7c1.2,0.2,2.4,1.4,3.6,1.6c1,0.1,1.9-0.3,2.8,0c1.1,0.3,2.1,1.5,3.3,2.1c1,0.4,2.2,0.4,3.1,0.7
			c8.5,3.6,12.7,13.1,18,21.2c1.3,1.9,2.8,3.8,4,5.8c1.7,2.8,3.1,5.9,5.2,8.1c0.5,2.4-0.4,5.2,0.9,6.8c1,0,1.9-0.1,3-0.3
			c2.4-6.7-2.1-12.9-5.1-17.7c-6.6-10.6-12.9-18.3-22.4-25.7c-3.1-2.5-7-4.5-11.1-6.6c-1.4-0.7-2.5-2-3.4-2.3c-1-0.4-2.7,0.1-4-0.1
			c-1.4-0.3-2.4-1.1-3.3-1.1c-4.5-0.5-10.5,1-15.1,2.4c-25.9,7.5-41.7,26.3-51.9,46.3c-1.7,3.3-2.9,7.1-4.9,10.6
			c-1.9,3.3-6.3,6.3-6.1,11.7c-1.5,0.6-2.2,2.1-3.1,3.2c-0.9,1.2-2.3,1.9-3.2,3c-4.4,5.2-6.3,14.7-8.5,22.3
			c-3.1,10.5-6.6,19.5-14,26c1.3,5.3-3.1,6.5-6.1,8.7c-2.8,2.2-3.8,6.6-7,6.3c-1.2-5,4-4.9,6.2-7.2c-0.9-3.3,1.9-4.4,3.1-6.3
			c0.7-1,1.3-2.7,2.1-4.2c5-9.3,13.3-19.2,11.5-33.9c6.3-13.4,14.4-25.6,21.2-38.7c2.4-4.7,4.2-10.4,7.2-14.7
			c2.3-3.3,5.8-6.2,8.7-9.2c7.3-7.7,15.3-14.6,25.7-19.7c1.9-0.9,4.6-1.6,6.4-2.8c1-0.7,1.2-1.9,2.5-2.4c2-1,4.4-0.2,6.1-0.7
			c1.6-0.6,2.4-2.6,3.4-3c2.7-1.3,6.4-1.7,9.3-0.8c0.9,0.3,1.8,1.5,3.1,1.7c1.6,0.2,3.5-0.8,5.3-0.8c1.2,1.2,3.1,0.7,4.5,1
			c1.1,0.3,2.2,1.3,3.1,1.7c6.7,2.8,12.1,4.6,17,8.5c14.4,11.1,23.6,28.1,31.4,48.6c1,0.9,1.2,0.9,1.8,1.8c1.7,2.6,2.3,9.3,1.2,12.3
			c-0.3,0.7-1.4,1.3-1.5,2.1c-0.1,1.6,1.3,3,1.7,4.7c0.5,2.4-0.4,6.8,2.8,6.1c1.1-0.2,0.5-1.9,0.5-3c4.2-0.2,0.7-5.6,0.4-7.4
			c-1.2-4.8-0.4-11-1.5-15.9c-1.4-6.4-5.3-13.6-8.5-20.1c-8.1-16.5-17.2-29-31.3-38.4c-2.8-1.9-5.6-4.1-8.3-5.1
			c-4.2-1.5-10.2-1.9-15.2-2.2c-6-0.4-12.2,0.1-17.7,1c-9.4,1.4-17,5.4-24,10c-10.5,6.8-18.3,14.4-24.8,24.1
			c-6.2,9.2-15.8,16.7-18.1,29.3c-4.6,4.6-7.7,10.1-10.8,15.8c-3,5.5-5.7,11.9-9.6,16.6c-3.1,3.9-7.2,6.6-9.3,11.3
			c-5.3,2-3.8,9.6-9.5,11.3c-0.5,1.7-1.9,3.8-4.1,3.3c-0.4-3.1,3.4-4.4,5-6.6c1.6-2.2,2.5-5.5,4.1-8.3c8.7-16,17.5-31.2,27.1-47.2
			c2.1-3.5,5.4-5.8,4.4-10.5c1.3-2.3,3.1-4.1,4.9-6.1c1.7-2,2.9-4.4,4.6-6.3c2.9-3.3,6.8-6.6,10-9.9c8-8.3,16.3-16.6,28-21.9
			c2.3-1.1,4.8-1.7,7.4-2.8c1-0.5,1.9-1.6,3.2-2c2.4-0.9,6.1-0.5,8.3-1.3c1.8-0.6,3.2-2,5.5-2.5c4.8-1,13.3-1.1,18.3,0
			c1.3,0.2,2.3,1.5,3.9,1.8c3.2,0.9,7.6,0.2,10.1,2.5c15.5,3.6,25.8,14.9,35,28.5c4.3,6.3,8.2,13.2,11.6,21.4
			c4.2,10,9.5,24.6,5.3,35.2c1.4,2.6-0.7,5-0.4,7.4c0.2,1.3,1.2,2.2,1.3,3.5c0.4,3.4-1.7,6.5-2,9.8c0,1.3,1.2,1.2,1.2,3.1
			c0,1.2-1.6,2.2-1.8,3.9c-0.3,2.1,0.7,4.7,0.9,7c0.2,2.4-0.8,5.8,1.8,6.3c1.5-1-0.2-3.5,0-5.4c6.6-4.9,1.1-19,3.6-28.8
			c0.4-1.3,1.5-2.7,1.5-3.9c0.1-1.6-0.4-3.2-0.2-4.7c0.3-1.6,1.3-2.7,1.3-4.1c0-3.1-2.4-4.9-1.6-7.5c-4-1.3-2.4-8.9-3.3-13.5
			c-1.6-7.7-5.9-16.9-9.3-23.5c-1.8-3.5-4-6.7-6.1-10c-4.4-6.6-8.4-11.6-14.1-16.4c0-1-0.1-1.9-0.3-3c-4.5-0.6-6.1-3.2-9.2-5.2
			c-2.7-1.8-6.4-3.1-9.5-4.6c-8-3.4-17.3-6.6-29.1-5.1c-2,0.2-4.4,1.1-6.8,0.9c-1.2-0.2-2.3-1.3-3.9-1.4c-1.6,0-3.4,0.9-5.3,1.2
			c-1.5,0.3-3.3,0.1-4.9,0.5c-2.6,0.6-5.3,2.7-8,3.9c-13.4,6.7-24.9,14.3-34.2,24c-3.7,3.8-6.8,8-10.5,12.1
			c-7.2,8.8-13.6,17.2-19,26.4c-5.7,9.5-10.6,19.4-17.4,27.3c0.9,3.4-1.2,4.4-2.5,5.9c0.4,3.4-1.7,4.6-3.7,6c-0.2,3.1-2,5-3.8,7.3
			c-1.1,1.3-1.9,2.6-2.8,3.5c-1.8-4.7,2.5-7.5,4.1-10.8c1.9-4,2.1-9.1,6.3-11.5c-0.4-4.9,3.2-6.4,5.7-8.9
			c3.1-11.3,8.4-20.8,14.4-29.7c-0.1-0.8-0.1-1.6-0.2-2.4c15.7-21.5,36.3-38.9,62.1-51.9c-0.5-1.4,1.7-0.9,1.8-1.8
			c0-1.1-0.2-2.1-0.2-3.2c-4.1-1.1-5.8,1.7-8.1,2.7c-0.8,0.4-1.8,0.1-2.7,0.5c-1,0.4-1.1,1.4-2.4,0.9c-9.9,8.5-21.7,14.8-31.6,23.2
			c-7,5.8-13.7,13.6-19.1,21.1c-1.9,2.6-4.3,4.8-6,7.2c-4,5.5-6.4,13.3-10.4,19.8c-1.1,1.7-4.2,4.2-4.4,5.8
			c-0.3,1.4,0.6,3.3,0.5,4.4c-2.5,4-7.3,9.1-9.9,14.7c-0.6,1.6-1.2,5.1-2.4,5.4s-2.2-1.3-2.6-2C13.2,233.2,13.2,232.5,13.1,231.9z
			 M187.6,205.8c-2.4-16.8-10.7-30.4-21.2-38.7c-3.5-2.8-8-6.3-11.7-7.2c-0.9-0.3-2.3,0.1-3.4-0.2c-1.4-0.3-4.6-1.9-7.4-2.5
			c-2.1-0.5-7.2-0.3-7.5,1.5c-0.3,2.4,4.7,3.3,7.2,3.3c4,2.7,8.9,4.3,15,4.7c4.8,2.4,8.4,6.5,12.1,10.5c0.1,0.8,0.1,1.6,0.2,2.4
			c5.9,4.5,9.8,11.7,11.4,21.4c4.7,1.7,1.1,13.5,5.8,15.2C188.8,213.2,188.1,209.6,187.6,205.8z M169.6,220.9
			c-0.1,0.5-1.3,0.2-0.9,1.1c1.5,4.3-2.3,7.2,1,10.2c1.3,0,2-0.4,2.6-1c0.1-1.9-0.5-4.5,1-5.5c0-1.8-0.9-3.1-0.7-4.6
			c0.1-0.5,0.9-0.8,1.1-1.3c0.5-1.9-1-3.5-0.7-6.1C169.4,211.3,168.8,217,169.6,220.9z M185.5,221.8c2.8,1.9,4.3-1.2,3.3-4.4
			c-1.3,0.3-1.6-0.6-2.5-0.8C187.3,218.6,184.8,219.4,185.5,221.8z M180.4,228.7c0.1-1.9,2.4-8.4-0.9-9.5c-4-1.4-2.3,6.7-1.7,10
			c-1,0.5-0.8,2.4-0.6,4.1c-0.1,0.7-1.3,0.6-1.1,1.6c-0.1,1.7,0.6,2.6,0.7,4.1c4.1,0.3,3.8-3,3.4-6.4c0.3-0.4,0.7-0.6,0.5-1.3
			C180.7,230.6,180.3,229.6,180.4,228.7z M225.7,232.5c1.4,0.7,2.8,0,3.6-0.8c-0.2-2.1-0.4-4-0.6-6.1
			C224.3,222.7,224,229.5,225.7,232.5z M167.3,240.9c3.2-0.3,4.6-3.4,3.4-6.7C166.9,233.3,165.1,238.2,167.3,240.9z M175.1,333.5
			c0.5-0.4,1.4-0.3,2-0.6c8.6-9.9,17.2-20.9,23.1-34.5c4.1-9.4,7.1-20.9,10-31.7c1.1-3.8,2.7-7.7,2.9-11.1c0.1-2.5-0.7-4.6-0.6-6.8
			c0.2-3.2,1.6-6.4-0.4-9.6c-0.3,0-0.4-0.3-0.9-0.4c-0.7,1.1-1.3,2.3-2.6,3c0.1,1.4,0.6,2.1,0.6,3.6c0.1,0.9-1.1,0.7-1.1,1.6
			c-2.4,31.2-12.6,56.1-27.8,76.8c-0.6,0.1-1.3,0.1-1.9,0.1c-3.5,3.5-6.8,7.2-9.5,11.5c2.5-0.8,2.8,2.4,4.2,2.1
			C174.5,336.8,174.1,334.6,175.1,333.5z M219.8,281.9c2.1,0.5,1.3,4.2,0.3,5.2c-1.7,0.7-4.2,0.3-5.3-0.6c-0.6-2.9,0.1-4.5,1.6-5.6
			c-0.6-2.7,2.2-9.6-1.1-9.5c-2.6,0-1.2,3.4-1.3,6.1c-6.5,13.9-10.8,29.1-19.6,40.6c-1.2,1.6-3,3.1-4,4.9c-1.2,2-1.5,4.4-3.1,6.3
			c-1.4,1.7-3.2,2.7-5.3,4c-0.6,1.4-1.2,2.7-2.3,3.7c-2.1,0.8-3.3,2.1-3.8,4.1c4.9,2.4,7.3-1.4,10-4.1
			c11.5-11.6,18.8-28.2,26.7-41.3c-0.2-1.1-0.2-2.1,0.2-2.8c1-0.7,3.2-1.4,4.6-1c1.2,2.6-1.2,4.2-2.5,5.6c0.7,2.4-1.1,3.6-1.5,5.2
			c-0.2,1-0.1,2.1-0.2,3c-1.4,5.1-6.3,8.2-8.9,12.2c-3.2,14.5-18,19.2-23.3,31.8c15.1-4.5,19.3-18.1,32.2-24.6
			c-0.3-3.1-4.2-2-6.1-1.7c4.1-9.4,9.3-18.1,14.7-26.5c-0.1-0.8-0.1-1.5-0.2-2.2c4.2-2,1.2-9.9,2.6-14.3c-0.1-0.9,1.8-0.2,1.4-1.3
			c1.5-11,6.9-27.5,2.2-39.4C220.6,249.8,226.7,271.2,219.8,281.9z M234.6,319.7c-4.3,7.3-14.6,9.6-15.7,19.7
			c9-2.2,12.2-9.1,19.3-12.8c0.5-2,1.8-3.3,1.7-5.8C239.2,319.3,237,319.3,234.6,319.7z M141,342.7c4.1,0,4.7-3,8-3.8
			c0-1-0.1-1.9-0.3-3C143.8,336.3,140.9,338.2,141,342.7z M156.5,337.6c-0.9,1.2-3.6,2.8-2.9,4.8c0.1,0.4,1,1.3,1.6,1.4
			c2.6,0.3,2.1-3.1,4.1-3.8C158.2,339.1,157.6,338,156.5,337.6z M172.6,346.6c1.3-1,4.2-2.9,4.3-3.6c0-0.8-1-2.7-2.1-2.3
			c-0.4,0.1-1.5,2.1-2.9,1.2c-1,2.7-2.8,4.2-5.8,3.8c-1.1-0.2-1.4-1.1-2.5-1c-2.1,0.2-3.3,1.9-3.3,4.4c0.2,0.1,0.2,0.2,0.3,0.4
			C164.6,351.1,170,348.8,172.6,346.6z M212.1,341.4c-1.4,0.6-0.9,4.2,0.3,5c2.6-0.3,3.8-1.8,3.7-4.3
			C215.1,341.3,213.8,341,212.1,341.4z M177.9,350.1c-0.8-3.4-5.7,1-7.1,2.4c0,1,0.1,1.9,0.3,3c1.3-0.1,2.7-0.2,3.9-0.4
			C175.3,353.1,178.4,352.1,177.9,350.1z M164.3,355.5c-4,2.6-11.1,6.6-15.8,9.5c-2.8,1.7-6.9,3.6-3.6,6.2
			c8.4-4.4,16.4-8.9,24.4-13.7c0-1-0.1-1.9-0.3-3C168,354.3,164.9,355.2,164.3,355.5z M158.2,367.9c-1.4,2-5.1,1.3-6.9,2.6
			c-1.2,0.9-0.6,2.1-1.6,3.4c-1.4,0.5-4.5-0.3-4.6,1.1c0.1,0.2,0,0.4,0.1,0.8c3,1.4,6.1-0.8,7.8-1.5c7.6-2.9,18.2-3.5,20-11
			C166.2,362.6,164.7,368,158.2,367.9z M183,372.8c1.8-0.2,3.4-0.6,4.1-1.6C186.7,366.1,179,369.5,183,372.8z M175.1,375.4
			c2.8-0.2,5.5-0.2,4.6-3.4C177,372.2,174.2,372.3,175.1,375.4z M170,375c-0.1,0,0.2,0.7,0.1,0.8c-1.1,0.5-1.9,0.9-3.9,0.6
			c-0.2,2.7-4.8,1.7-5.4,4.2c4.2,0.8,10-0.5,12.3-2.7c0-1.1-0.2-2.1-0.2-3.2C171.9,375.1,170.7,374.5,170,375z M152.1,381.6
			c0,1.2,0.2,2.1,0.7,2.6c2.2,1,5.1,0.1,4.2-3.1C155.4,380.3,153.3,380.6,152.1,381.6z"/>
		<path class="st0" d="M168.2,12c1.1,0,3.2-0.7,5.1-0.7c1.3,1.1,3.9,0.8,4.4,2.7c10.4,0.6,20.7,2.4,26.2,7.9
			c-2.9,0.2-5.6-1.4-8.6-0.2C188.9,15.3,173.9,19.3,168.2,12z"/>
		<path class="st0" d="M105.8,112c-10.6,5.9-20.8,10.6-29.6,17.6c-8.6,6.9-16.9,14.2-27,19.6c-0.2-0.1-0.3,0.2-0.2,0.2
			C54.4,140.1,64.5,134,74,128C83.8,122,92.2,114.3,105.8,112z"/>
	</g>
</g>
</svg>
